<?xml version="1.0" encoding="UTF-8"?>
<svg version="1.1" xmlns="http://www.w3.org/2000/svg" width="2027" height="776">
<path d="M0 0 C18.26354933 -0.73054197 32.13385883 2.72244754 46.5078125 14.56640625 C55.10346011 22.95996183 61.74704587 33.97164035 63 46 C63.33 46.33 63.66 46.66 64 47 C65.60934438 64.72717223 62.56311806 80.09424111 51.39941406 94.22558594 C45.96431717 100.5101241 39.9199353 106.23967092 34 112.0625 C31.97710557 114.05754088 29.95580289 116.05413156 27.9375 118.05381775 C26.69036237 119.28894327 25.44056683 120.52139377 24.1875 121.75050354 C21.2160666 124.68833318 18.37512689 127.6785196 15.65039062 130.84741211 C11.52639028 135.61963854 7.07381389 140.03301122 2.59375 144.46875 C1.71021851 145.34849487 0.82668701 146.22823975 -0.08361816 147.13464355 C-3.3597232 150.39656945 -6.6403498 153.65392564 -9.92132568 156.91094971 C-13.14830538 160.1148726 -16.3713808 163.32269116 -19.59375 166.53125 C-20.43248657 167.36168823 -21.27122314 168.19212646 -22.13537598 169.04772949 C-26.35607909 173.25095558 -30.38827419 177.53097031 -34.2713623 182.04650879 C-37.38924858 185.56995587 -40.7485973 188.85033328 -44.09375 192.15625 C-44.84410522 192.9028186 -45.59446045 193.64938721 -46.36755371 194.4185791 C-49.54216504 197.57701112 -52.72275916 200.72939279 -55.90283203 203.88232422 C-58.23940361 206.20069745 -60.57287999 208.5221552 -62.90625 210.84375 C-63.6137439 211.54294556 -64.32123779 212.24214111 -65.0501709 212.96252441 C-68.30224376 216.19874388 -71.45169295 219.46754152 -74.4453125 222.9453125 C-78.40084699 227.53133809 -82.66578604 231.7732017 -86.96875 236.03125 C-88.22745911 237.28427917 -88.22745911 237.28427917 -89.51159668 238.56262207 C-93.0685452 242.10336129 -96.6314612 245.63807324 -100.19384766 249.17333984 C-102.80840164 251.7697206 -105.41988184 254.36916566 -108.03125 256.96875 C-108.82623901 257.75544067 -109.62122803 258.54213135 -110.44030762 259.35266113 C-114.63793291 263.5319864 -118.66659989 267.7883461 -122.51321411 272.29399109 C-124.67061311 274.76949341 -127.01372769 277.03277313 -129.375 279.3125 C-133.81601415 283.67584209 -137.82164643 288.26736949 -141.69921875 293.13671875 C-143.72994612 295.66392276 -145.81529545 298.13133098 -147.93359375 300.58520508 C-171.89995116 328.43421423 -190.14322421 359.61485104 -197 396 C-197.1757959 396.92087402 -197.3515918 397.84174805 -197.53271484 398.79052734 C-198.44811372 405.07779673 -198.24408838 411.46846461 -198.25 417.8125 C-198.25100708 418.55643005 -198.25201416 419.30036011 -198.25305176 420.0668335 C-198.24300058 431.017004 -197.72756067 441.34510343 -195 452 C-194.68272115 453.34093967 -194.36633544 454.68209093 -194.05078125 456.0234375 C-192.34651917 463.02880679 -190.23079189 469.55860866 -187 476 C-186.41557859 477.22604444 -185.83235897 478.45266208 -185.25 479.6796875 C-178.56711593 493.59665579 -170.24726024 505.49512146 -160 517 C-159.41734375 517.65613281 -158.8346875 518.31226563 -158.234375 518.98828125 C-135.49470439 543.0486903 -101.27409168 558.14992506 -68.27734375 559.25 C-27.9695349 559.96540565 8.16920469 546.06528693 37.55078125 518.484375 C53.38574342 502.42211673 70.2196797 477.85375452 74 455 C72.741875 454.67 71.48375 454.34 70.1875 454 C56.91800415 449.52128476 46.35487885 438.03539625 40.21875 425.74609375 C34.0104198 411.75745232 33.80561727 394.59235908 38.6640625 380.0859375 C40.87929037 374.96889068 43.70776546 370.48529201 47 366 C48.0828125 364.453125 48.0828125 364.453125 49.1875 362.875 C58.21567302 352.72933326 70.57064166 346.42650909 84 345 C86.81440913 344.85088772 89.61950102 344.81503645 92.4375 344.8125 C93.14970703 344.80025391 93.86191406 344.78800781 94.59570312 344.77539062 C109.21240135 344.73556311 121.99420888 351.31444053 132.34375 361.25 C144.77864742 374.18229332 147.3954238 387.84857479 147.37109375 405.15332031 C147.1190741 416.91003681 143.68971806 426.36256976 137 436 C136.29875 437.010625 135.5975 438.02125 134.875 439.0625 C126.12385494 448.83830445 113.05236167 456.15022263 100 458 C97.89676466 458.0659735 95.79164276 458.08562245 93.6875 458.0625 C92.61886719 458.05347656 91.55023437 458.04445313 90.44921875 458.03515625 C89.23685547 458.01775391 89.23685547 458.01775391 88 458 C87.88527344 458.99515625 87.77054688 459.9903125 87.65234375 461.015625 C84.34889682 483.84776776 69.42705884 506.31427757 54.01953125 522.828125 C52.24915862 524.73204605 50.58614232 526.67891151 48.9375 528.6875 C45.63207016 532.54982291 41.92876376 535.78437818 38 539 C37.07445312 539.763125 36.14890625 540.52625 35.1953125 541.3125 C20.86197176 552.87481973 5.30065577 560.81621815 -12 567 C-12.9472998 567.34160156 -13.89459961 567.68320312 -14.87060547 568.03515625 C-39.46342394 576.60302825 -68.68341389 578.5456617 -94 572 C-94.71188477 571.81775879 -95.42376953 571.63551758 -96.15722656 571.44775391 C-136.7069337 560.79878518 -171.91618121 535.07790385 -193.27539062 498.8359375 C-213.78637473 462.78828669 -220.29307872 419.11344999 -209.67578125 378.80078125 C-208.28072701 373.80987869 -206.69767769 368.89555461 -205 364 C-204.76941895 363.33307129 -204.53883789 362.66614258 -204.30126953 361.97900391 C-197.90347482 343.92858091 -188.00443197 327.57318455 -177 312 C-176.5992627 311.43200684 -176.19852539 310.86401367 -175.78564453 310.27880859 C-170.17685495 302.40703667 -163.93058697 295.11749979 -157.58789062 287.83935547 C-155.93064298 285.91965931 -154.29893176 283.98048815 -152.671875 282.03515625 C-152.13022705 281.3911084 -151.5885791 280.74706055 -151.03051758 280.08349609 C-149.9892663 278.8442076 -148.95244158 277.6011828 -147.9206543 276.35400391 C-144.33671151 272.11223717 -144.33671151 272.11223717 -141 271 C-145.93047608 265.20240142 -151.12143306 259.75630919 -156.53125 254.40625 C-157.32599731 253.61528931 -158.12074463 252.82432861 -158.9395752 252.00939941 C-161.45728432 249.50380477 -163.97821446 247.00149142 -166.5 244.5 C-169.82588189 241.2008832 -173.14832336 237.89835626 -176.46875 234.59375 C-177.21999146 233.85080688 -177.97123291 233.10786377 -178.74523926 232.34240723 C-182.79157658 228.31469464 -186.63557612 224.18841559 -190.3614502 219.86340332 C-192.82980976 217.05631781 -195.46135086 214.43286169 -198.125 211.8125 C-198.67559082 211.2656958 -199.22618164 210.7188916 -199.79345703 210.15551758 C-201.52650817 208.43450493 -203.26279773 206.71682168 -205 205 C-217.84183374 192.30882464 -217.84183374 192.30882464 -223.1484375 186.07421875 C-227.52927088 181.1665763 -232.31964965 176.62045556 -237 172 C-242.90998391 166.1656466 -248.78086065 160.36925168 -254.17578125 154.046875 C-258.23272355 149.49475988 -262.65909688 145.27980461 -267 141 C-277.65876231 130.49126048 -277.65876231 130.49126048 -281.41015625 126.078125 C-284.38884197 122.59339062 -287.59523353 119.37430178 -290.87109375 116.171875 C-291.40151276 115.651698 -291.93193176 115.131521 -292.47842407 114.59558105 C-294.6794281 112.43961972 -296.88203103 110.28564536 -299.09985352 108.14697266 C-308.50933734 99.05591232 -317.11293131 89.84837309 -320.9375 77 C-321.31777344 75.7625 -321.69804687 74.525 -322.08984375 73.25 C-322.39019531 72.1775 -322.69054687 71.105 -323 70 C-323.20238281 69.35933594 -323.40476562 68.71867187 -323.61328125 68.05859375 C-326.37927127 53.33458628 -323.40632362 37.32561176 -315 25 C-306.24574644 13.77279345 -294.38549853 3.6373414 -280 1 C-275.319305 0.85034162 -270.68589125 0.91074493 -266 1 C-266 5.62 -266 10.24 -266 15 C-268.0625 15.20625 -270.125 15.4125 -272.25 15.625 C-282.17873688 17.05056182 -292.37568727 21.13871487 -299 29 C-306.50188754 39.94743087 -310.35098292 49.64369156 -309 63 C-305.90680762 78.72372795 -296.63094779 88.95072597 -285.5 99.6875 C-283.29780757 101.83288857 -281.1012089 103.98393232 -278.90625 106.13671875 C-278.37543823 106.65575775 -277.84462646 107.17479675 -277.29772949 107.70956421 C-274.6233985 110.34001995 -272.04949335 113.00124501 -269.625 115.86328125 C-264.01422399 122.46484906 -257.65322826 128.41094745 -251.5 134.5 C-236.91387543 148.93399712 -236.91387543 148.93399712 -231.73632812 155.04101562 C-227.72014321 159.57221188 -223.31053987 163.75013127 -219 168 C-208.34270594 178.50729193 -208.34270594 178.50729193 -204.59375 182.90625 C-199.58163758 188.76564809 -193.98184622 194.08525886 -188.5 199.5 C-176.2480387 211.60198101 -176.2480387 211.60198101 -172.53125 215.96875 C-167.39665851 221.99358813 -161.62598 227.44002312 -156 233 C-142.42723069 246.41353571 -142.42723069 246.41353571 -137.31225586 252.46289062 C-135.64458994 254.41630915 -133.85212898 256.22195618 -132 258 C-127.91013716 256.42365498 -125.47187902 253.47321893 -122.64453125 250.26953125 C-118.20060614 245.34581152 -113.65496728 240.56101807 -108.94921875 235.88671875 C-108.05700119 234.99945602 -108.05700119 234.99945602 -107.14675903 234.0942688 C-105.32900601 232.28998039 -103.50871531 230.48829319 -101.6875 228.6875 C-99.25086001 226.27778775 -96.81781207 223.86452535 -94.38671875 221.44921875 C-93.84802658 220.91882492 -93.30933441 220.38843109 -92.75431824 219.84196472 C-89.98901028 217.0941785 -87.35981701 214.28815983 -84.82543945 211.32543945 C-80.4696805 206.29479031 -75.74952824 201.63711498 -71.02885437 196.95368958 C-69.36886941 195.30666117 -67.71219765 193.65636048 -66.05627441 192.00524902 C-61.94587777 187.90810448 -57.83000966 183.81647096 -53.71429443 179.72467041 C-50.22481779 176.25504276 -46.73747892 172.78329203 -43.25285339 169.30879211 C-41.63373229 167.69607417 -40.01159216 166.08643782 -38.38928223 164.47692871 C-32.27738076 158.3966504 -32.27738076 158.3966504 -26.5 152 C-22.27345502 147.06150282 -17.63988409 142.52833598 -13.02885437 137.95368958 C-11.36886941 136.30666117 -9.71219765 134.65636048 -8.05627441 133.00524902 C-3.94587777 128.90810448 0.16999034 124.81647096 4.28570557 120.72467041 C7.77518221 117.25504276 11.26252108 113.78329203 14.74714661 110.30879211 C16.36626771 108.69607417 17.98840784 107.08643782 19.61071777 105.47692871 C24.41453485 100.69683042 29.13225751 95.8884963 33.52233887 90.71862793 C35.17050004 88.80169599 36.89290777 86.96613317 38.625 85.125 C46.93204813 75.58589529 49.55416018 64.67785838 49.30859375 52.26953125 C48.26156148 41.17629066 42.26222567 31.23787654 33.75 24.1875 C22.9966697 16.55029389 12.85549777 14.94754494 0 14 C0 9.38 0 4.76 0 0 Z " fill="#C0735E" transform="translate(430,112)"/>
<path d="M0 0 C1.07507812 -0.0937793 1.07507812 -0.0937793 2.171875 -0.18945312 C4.41482601 -0.25748381 6.11497623 -0.1359454 8.25 0.5625 C10.55649442 3.29585731 11.74565358 5.36763115 13.25 8.5625 C13.85439835 9.79642481 14.45978618 11.02986523 15.06591797 12.26293945 C17.20022675 16.65128144 19.25712085 21.07429321 21.3125 25.5 C22.02624213 27.02560151 22.74043165 28.55099379 23.45507812 30.07617188 C26.52397397 36.63681993 29.56263501 43.20645294 32.4777832 49.8371582 C33.51686124 52.1587404 34.65068529 54.42522054 35.8125 56.6875 C37.15380695 59.29975025 38.39208035 61.89891517 39.53515625 64.60546875 C41.85576654 70.08372722 44.5256848 75.40027792 47.125 80.75 C53.41739725 93.75982513 59.52312694 106.85098798 65.58642578 119.96923828 C68.41995651 126.08956485 71.27193785 132.20125962 74.125 138.3125 C74.41348816 138.93063568 74.70197632 139.54877136 74.99920654 140.18563843 C79.2763693 149.34956304 83.56711903 158.5070731 87.86248779 167.66247559 C94.50796949 181.82783322 101.12724269 196.00484959 107.69482422 210.20654297 C109.2916325 213.65233992 110.89744789 217.09384915 112.50390625 220.53515625 C113.5237053 222.73164652 114.54324795 224.92825585 115.5625 227.125 C116.03719727 228.13691406 116.51189453 229.14882813 117.00097656 230.19140625 C117.42991211 231.11953125 117.85884766 232.04765625 118.30078125 233.00390625 C118.67887939 233.81545166 119.05697754 234.62699707 119.4465332 235.46313477 C120.25 237.5625 120.25 237.5625 120.25 240.5625 C112.33 240.5625 104.41 240.5625 96.25 240.5625 C95.30125 238.520625 94.3525 236.47875 93.375 234.375 C88.71315618 224.41560638 83.97775087 214.49077683 79.25 204.5625 C26.45 204.2325 -26.35 203.9025 -80.75 203.5625 C-81.74 206.5325 -82.73 209.5025 -83.75 212.5625 C-84.66123094 214.74412283 -85.60828172 216.9112796 -86.59765625 219.05859375 C-87.12037109 220.19361328 -87.64308594 221.32863281 -88.18164062 222.49804688 C-88.71982422 223.65369141 -89.25800781 224.80933594 -89.8125 226 C-90.62557617 227.77407227 -90.62557617 227.77407227 -91.45507812 229.58398438 C-95.49455291 238.30705291 -95.49455291 238.30705291 -97.75 240.5625 C-100.08837891 240.78955078 -100.08837891 240.78955078 -102.9765625 240.7578125 C-104.5234375 240.74814453 -104.5234375 240.74814453 -106.1015625 240.73828125 C-107.72191406 240.71314453 -107.72191406 240.71314453 -109.375 240.6875 C-110.46296875 240.67847656 -111.5509375 240.66945313 -112.671875 240.66015625 C-115.36480152 240.63653409 -118.05729255 240.60359556 -120.75 240.5625 C-120.12678861 236.54425724 -118.8425027 233.35455905 -117.046875 229.71484375 C-116.48540771 228.56677246 -115.92394043 227.41870117 -115.34545898 226.23583984 C-115.04517792 225.6281073 -114.74489685 225.02037476 -114.43551636 224.39422607 C-112.82581157 221.13490862 -111.23574806 217.86602921 -109.64453125 214.59765625 C-109.31747696 213.92682007 -108.99042267 213.25598389 -108.65345764 212.56481934 C-105.40988797 205.8960469 -102.29024602 199.17297305 -99.1875 192.4375 C-94.95838889 183.27079266 -90.65012762 174.14835789 -86.25 165.0625 C-81.96101251 156.20268274 -77.75137639 147.31170404 -73.625 138.375 C-68.30609369 126.85876071 -62.88897105 115.39151633 -57.4375 103.9375 C-51.4945166 91.44974006 -45.56828152 78.95468176 -39.6875 66.4375 C-34.22489948 54.81409788 -28.75048093 43.1963604 -23.2571106 31.58746338 C-22.47211113 29.9282659 -21.68749258 28.26888814 -20.90328979 26.60931396 C-8.47966093 0.32097308 -8.47966093 0.32097308 0 0 Z " fill="#C5755F" transform="translate(1148.75,132.4375)"/>
<path d="M0 0 C18.26354933 -0.73054197 32.13385883 2.72244754 46.5078125 14.56640625 C55.10346011 22.95996183 61.74704587 33.97164035 63 46 C63.33 46.33 63.66 46.66 64 47 C65.60934438 64.72717223 62.56311806 80.09424111 51.39941406 94.22558594 C45.96431717 100.5101241 39.9199353 106.23967092 34 112.0625 C31.97710557 114.05754088 29.95580289 116.05413156 27.9375 118.05381775 C26.69036237 119.28894327 25.44056683 120.52139377 24.1875 121.75050354 C21.2160666 124.68833318 18.37512689 127.6785196 15.65039062 130.84741211 C11.52639028 135.61963854 7.07381389 140.03301122 2.59375 144.46875 C1.71021851 145.34849487 0.82668701 146.22823975 -0.08361816 147.13464355 C-3.3597232 150.39656945 -6.6403498 153.65392564 -9.92132568 156.91094971 C-13.14830538 160.1148726 -16.3713808 163.32269116 -19.59375 166.53125 C-20.43248657 167.36168823 -21.27122314 168.19212646 -22.13537598 169.04772949 C-26.35607909 173.25095558 -30.38827419 177.53097031 -34.2713623 182.04650879 C-37.38924858 185.56995587 -40.7485973 188.85033328 -44.09375 192.15625 C-44.84410522 192.9028186 -45.59446045 193.64938721 -46.36755371 194.4185791 C-49.54216504 197.57701112 -52.72275916 200.72939279 -55.90283203 203.88232422 C-58.23940361 206.20069745 -60.57287999 208.5221552 -62.90625 210.84375 C-63.6137439 211.54294556 -64.32123779 212.24214111 -65.0501709 212.96252441 C-68.30224376 216.19874388 -71.45169295 219.46754152 -74.4453125 222.9453125 C-78.40084699 227.53133809 -82.66578604 231.7732017 -86.96875 236.03125 C-88.22745911 237.28427917 -88.22745911 237.28427917 -89.51159668 238.56262207 C-93.0685452 242.10336129 -96.6314612 245.63807324 -100.19384766 249.17333984 C-102.80840164 251.7697206 -105.41988184 254.36916566 -108.03125 256.96875 C-108.82623901 257.75544067 -109.62122803 258.54213135 -110.44030762 259.35266113 C-115.68589607 264.57538084 -120.59704615 270.00260988 -125.39343262 275.63684082 C-126.6875 277.0625 -126.6875 277.0625 -129 279 C-133.15779597 278.81451294 -135.31126106 276.05662635 -138.11645508 273.23999023 C-138.6129808 272.74550888 -139.10950653 272.25102753 -139.62107849 271.74156189 C-141.26124653 270.10440194 -142.89041289 268.4567437 -144.51953125 266.80859375 C-145.66231304 265.66275172 -146.80568883 264.51750183 -147.94963074 263.37281799 C-150.34903179 260.9688122 -152.74344 258.55998102 -155.1340332 256.1472168 C-158.1800718 253.07305563 -161.23456861 250.0074853 -164.29245472 246.94511318 C-167.22546573 244.00690887 -170.15379458 241.06405478 -173.08203125 238.12109375 C-173.63310862 237.56813566 -174.18418598 237.01517757 -174.75196266 236.44546318 C-180.16022053 231.01337523 -185.49127394 225.5649816 -190.48051453 219.73939514 C-192.9015427 216.96798027 -195.50282447 214.39206207 -198.125 211.8125 C-198.67559082 211.2656958 -199.22618164 210.7188916 -199.79345703 210.15551758 C-201.52650817 208.43450493 -203.26279773 206.71682168 -205 205 C-217.84183374 192.30882464 -217.84183374 192.30882464 -223.1484375 186.07421875 C-227.52927088 181.1665763 -232.31964965 176.62045556 -237 172 C-242.90998391 166.1656466 -248.78086065 160.36925168 -254.17578125 154.046875 C-258.23272355 149.49475988 -262.65909688 145.27980461 -267 141 C-277.65876231 130.49126048 -277.65876231 130.49126048 -281.41015625 126.078125 C-284.38884197 122.59339062 -287.59523353 119.37430178 -290.87109375 116.171875 C-291.40151276 115.651698 -291.93193176 115.131521 -292.47842407 114.59558105 C-294.6794281 112.43961972 -296.88203103 110.28564536 -299.09985352 108.14697266 C-308.50933734 99.05591232 -317.11293131 89.84837309 -320.9375 77 C-321.31777344 75.7625 -321.69804687 74.525 -322.08984375 73.25 C-322.39019531 72.1775 -322.69054687 71.105 -323 70 C-323.20238281 69.35933594 -323.40476562 68.71867187 -323.61328125 68.05859375 C-326.37927127 53.33458628 -323.40632362 37.32561176 -315 25 C-306.24574644 13.77279345 -294.38549853 3.6373414 -280 1 C-275.319305 0.85034162 -270.68589125 0.91074493 -266 1 C-266 5.62 -266 10.24 -266 15 C-268.0625 15.20625 -270.125 15.4125 -272.25 15.625 C-282.17873688 17.05056182 -292.37568727 21.13871487 -299 29 C-306.50188754 39.94743087 -310.35098292 49.64369156 -309 63 C-305.90680762 78.72372795 -296.63094779 88.95072597 -285.5 99.6875 C-283.29780757 101.83288857 -281.1012089 103.98393232 -278.90625 106.13671875 C-278.37543823 106.65575775 -277.84462646 107.17479675 -277.29772949 107.70956421 C-274.6233985 110.34001995 -272.04949335 113.00124501 -269.625 115.86328125 C-264.01422399 122.46484906 -257.65322826 128.41094745 -251.5 134.5 C-236.91387543 148.93399712 -236.91387543 148.93399712 -231.73632812 155.04101562 C-227.72014321 159.57221188 -223.31053987 163.75013127 -219 168 C-208.34270594 178.50729193 -208.34270594 178.50729193 -204.59375 182.90625 C-199.58163758 188.76564809 -193.98184622 194.08525886 -188.5 199.5 C-176.2480387 211.60198101 -176.2480387 211.60198101 -172.53125 215.96875 C-167.39665851 221.99358813 -161.62598 227.44002312 -156 233 C-142.42723069 246.41353571 -142.42723069 246.41353571 -137.31225586 252.46289062 C-135.64458994 254.41630915 -133.85212898 256.22195618 -132 258 C-127.91013716 256.42365498 -125.47187902 253.47321893 -122.64453125 250.26953125 C-118.20060614 245.34581152 -113.65496728 240.56101807 -108.94921875 235.88671875 C-108.05700119 234.99945602 -108.05700119 234.99945602 -107.14675903 234.0942688 C-105.32900601 232.28998039 -103.50871531 230.48829319 -101.6875 228.6875 C-99.25086001 226.27778775 -96.81781207 223.86452535 -94.38671875 221.44921875 C-93.84802658 220.91882492 -93.30933441 220.38843109 -92.75431824 219.84196472 C-89.98901028 217.0941785 -87.35981701 214.28815983 -84.82543945 211.32543945 C-80.4696805 206.29479031 -75.74952824 201.63711498 -71.02885437 196.95368958 C-69.36886941 195.30666117 -67.71219765 193.65636048 -66.05627441 192.00524902 C-61.94587777 187.90810448 -57.83000966 183.81647096 -53.71429443 179.72467041 C-50.22481779 176.25504276 -46.73747892 172.78329203 -43.25285339 169.30879211 C-41.63373229 167.69607417 -40.01159216 166.08643782 -38.38928223 164.47692871 C-32.27738076 158.3966504 -32.27738076 158.3966504 -26.5 152 C-22.27345502 147.06150282 -17.63988409 142.52833598 -13.02885437 137.95368958 C-11.36886941 136.30666117 -9.71219765 134.65636048 -8.05627441 133.00524902 C-3.94587777 128.90810448 0.16999034 124.81647096 4.28570557 120.72467041 C7.77518221 117.25504276 11.26252108 113.78329203 14.74714661 110.30879211 C16.36626771 108.69607417 17.98840784 107.08643782 19.61071777 105.47692871 C24.41453485 100.69683042 29.13225751 95.8884963 33.52233887 90.71862793 C35.17050004 88.80169599 36.89290777 86.96613317 38.625 85.125 C46.93204813 75.58589529 49.55416018 64.67785838 49.30859375 52.26953125 C48.26156148 41.17629066 42.26222567 31.23787654 33.75 24.1875 C22.9966697 16.55029389 12.85549777 14.94754494 0 14 C0 9.38 0 4.76 0 0 Z " fill="#C3745F" transform="translate(430,112)"/>
<path d="M0 0 C7.92 0 15.84 0 24 0 C28.49588951 8.99177902 28.49588951 8.99177902 29.59765625 12.47265625 C29.96407227 13.60477539 29.96407227 13.60477539 30.33789062 14.75976562 C30.57701172 15.51966797 30.81613281 16.27957031 31.0625 17.0625 C32.7982563 22.51839182 34.73013699 27.73646563 37 33 C38.19471375 36.23323153 39.31634518 39.49064278 40.4375 42.75 C41.06079749 44.54440997 41.68449156 46.33868225 42.30859375 48.1328125 C42.60362793 48.98262695 42.89866211 49.83244141 43.20263672 50.70800781 C45.23784203 56.55813257 47.3525964 62.36904342 49.62109375 68.1328125 C52.96593539 76.6317013 56.12267538 85.13207219 58.953125 93.81640625 C59.95478863 96.8625102 61.03552326 99.85644393 62.1875 102.84765625 C63.33357922 105.88366419 64.41286259 108.94242604 65.5 112 C67.46227653 117.51384529 67.46227653 117.51384529 69.5 123 C72.21789079 130.17645321 74.73948195 137.42789748 77.29296875 144.6640625 C77.71191406 145.84742188 78.13085938 147.03078125 78.5625 148.25 C78.93503906 149.30703125 79.30757812 150.3640625 79.69140625 151.453125 C80.72367716 154.25104139 81.80844076 157.00501853 82.93359375 159.765625 C85.36422823 165.80038221 87.35400375 171.95735406 89.35546875 178.14453125 C92.25837048 187.23796178 92.25837048 187.23796178 96 196 C96.66 196.33 97.32 196.66 98 197 C98.226875 195.7625 98.45375 194.525 98.6875 193.25 C99.77663531 188.3258812 101.6360859 183.93534168 103.63671875 179.3203125 C105.61325458 174.50640003 107.19240201 169.5913441 108.7890625 164.640625 C109.8329019 161.50237236 110.96457581 158.41390209 112.13079834 155.31982422 C113.76800708 150.95025539 115.35865851 146.56357708 116.95703125 142.1796875 C117.74151374 140.03026515 118.52601991 137.88085144 119.31054688 135.73144531 C119.71909912 134.61177368 120.12765137 133.49210205 120.54858398 132.33850098 C127.00943442 114.63387384 133.48186914 96.93362725 140 79.25 C140.28863922 78.46671326 140.57727844 77.68342651 140.87466431 76.87640381 C145.49766453 64.33337479 145.49766453 64.33337479 147.39428711 59.29907227 C149.43430006 53.86560375 151.40143015 48.40567741 153.37890625 42.94921875 C154.22568923 40.61905985 155.07270115 38.28898415 155.91992188 35.95898438 C157.24741462 32.30794776 158.57372217 28.65650395 159.89624023 25.00366211 C161.17844064 21.46332877 162.46569266 17.92486777 163.75390625 14.38671875 C164.14977432 13.28986252 164.5456424 12.19300629 164.95350647 11.06291199 C165.32406662 10.04788101 165.69462677 9.03285004 166.07641602 7.98706055 C166.5624807 6.64758614 166.5624807 6.64758614 167.05836487 5.28105164 C168 3 168 3 170 0 C172.33837891 -0.34057617 172.33837891 -0.34057617 175.2265625 -0.29296875 C176.7734375 -0.2784668 176.7734375 -0.2784668 178.3515625 -0.26367188 C179.43179688 -0.23853516 180.51203125 -0.21339844 181.625 -0.1875 C182.71296875 -0.17396484 183.8009375 -0.16042969 184.921875 -0.14648438 C187.61507409 -0.11104754 190.30729374 -0.06164331 193 0 C192.33254321 3.88314113 191.21501601 7.38365511 189.83203125 11.0703125 C189.60523178 11.67828171 189.37843231 12.28625092 189.14476013 12.91264343 C188.37083159 14.98475293 187.59155583 17.05481329 186.8125 19.125 C186.24472353 20.64267505 185.67735594 22.16050312 185.11035156 23.6784668 C183.8177533 27.13740866 182.52302447 30.5955441 181.22705078 34.05322266 C177.36315575 44.36586127 173.51809994 54.68554482 169.67025757 65.00418091 C168.72177841 67.54762243 167.77306016 70.09097457 166.8241272 72.63424683 C159.66512337 91.82154955 152.5388601 111.02073503 145.45410156 130.2355957 C141.10851152 142.01967796 136.74522453 153.79676374 132.27734375 165.53515625 C129.85912806 171.90147919 127.54376291 178.27346986 125.4375 184.75 C123.63167935 190.26554167 121.5477405 195.56186173 119.2578125 200.890625 C117.30642018 205.71456377 115.73228838 210.65332647 114.1171875 215.59765625 C107.13333333 236.86666667 107.13333333 236.86666667 104 240 C101.46950598 240.07313567 98.96695163 240.09247527 96.4375 240.0625 C95.37112305 240.05573242 95.37112305 240.05573242 94.28320312 240.04882812 C92.52209987 240.03700864 90.76103964 240.01907263 89 240 C84.91055015 231.16678832 81.47662456 222.08671872 78 213 C77.71801758 212.26668457 77.43603516 211.53336914 77.14550781 210.77783203 C74.43992137 203.73210071 71.81373259 196.71502262 69.7590332 189.44580078 C69.00445499 187.01435514 68.10504156 184.70986032 67.12890625 182.359375 C65.03327015 177.18422266 63.27542635 171.93674235 61.5625 166.625 C59.36573963 159.91261142 57.00938141 153.37762573 54.1875 146.8984375 C52.27512409 142.2307305 50.75826991 137.43839395 49.2109375 132.640625 C48.38146635 130.14686013 47.52817775 127.69720199 46.60058594 125.24169922 C46.33647919 124.54109375 46.07237244 123.84048828 45.80026245 123.11865234 C45.53617584 122.41949707 45.27208923 121.7203418 45 121 C42.02855693 113.0917091 39.06118914 105.18217129 36.1328125 97.2578125 C30.09956549 80.93556304 24.00039486 64.63930454 17.8125 48.375 C17.4737384 47.48426788 17.13497681 46.59353577 16.78594971 45.67581177 C12.23932933 33.73347008 7.61958707 21.82674555 2.74145508 10.01513672 C2.3730249 9.11424316 2.00459473 8.21334961 1.625 7.28515625 C1.30789063 6.52082275 0.99078125 5.75648926 0.6640625 4.96899414 C0 3 0 3 0 0 Z " fill="#C57560" transform="translate(557,133)"/>
<path d="M0 0 C0.66 0 1.32 0 2 0 C4.1178839 4.48190453 6.23544106 8.96396326 8.35269165 13.44616699 C9.1169571 15.06410445 9.88125961 16.6820244 10.64559937 18.29992676 C14.95521858 27.42281168 19.26036632 36.54775301 23.55078125 45.6796875 C23.91223236 46.44880463 24.27368347 47.21792175 24.64608765 48.01034546 C26.37207902 51.68323279 28.09703742 55.35659917 29.8203125 59.03076172 C32.80731438 65.39230179 35.83881764 71.72268775 39 78 C40 80.33333333 41 82.66666667 42 85 C42.65816075 86.33755249 43.32516607 87.67078166 44 89 C45.23918874 91.440968 46.36251157 93.85111411 47.4375 96.375 C48.70554852 99.31687256 50.05498051 102.14446895 51.5 105 C53.49292725 108.94433519 55.28450271 112.92569394 57 117 C60.02658012 123.86170511 63.25659896 130.59471353 66.66796875 137.2734375 C70 144.09384164 70 144.09384164 70 148 C24.13 148 -21.74 148 -69 148 C-67.06433819 142.19301458 -65.17949343 136.88736006 -62.55078125 131.44140625 C-62.05649879 130.40075516 -62.05649879 130.40075516 -61.55223083 129.33908081 C-60.47704676 127.07793451 -59.3947779 124.82025824 -58.3125 122.5625 C-57.55119444 120.96454237 -56.79046194 119.36631161 -56.03027344 117.76782227 C-54.85613002 115.29923953 -53.68154265 112.83087715 -52.50497437 110.3634491 C-49.91181492 104.92481792 -47.33641413 99.478188 -44.77734375 94.0234375 C-44.44093872 93.30640152 -44.10453369 92.58936554 -43.75793457 91.8506012 C-43.08748245 90.42123284 -42.41709205 88.99183553 -41.74676514 87.56240845 C-36.62149761 76.63633984 -31.44557144 65.73790667 -26.1875 54.875 C-21.1589579 44.4847316 -16.30442212 34.02388283 -11.51953125 23.51953125 C-9.16611276 18.35390836 -6.78408211 13.20238934 -4.375 8.0625 C-4.04395264 7.35206543 -3.71290527 6.64163086 -3.37182617 5.90966797 C-1.11898588 1.11898588 -1.11898588 1.11898588 0 0 Z " fill="#FCFBFB" transform="translate(1148,167)"/>
<path d="M0 0 C7.92 0 15.84 0 24 0 C29.88241975 14.47367387 35.36077255 29.04182412 40.625 43.75 C42.07392682 47.7870321 43.52486449 51.82333866 44.9765625 55.859375 C45.325979 56.83176117 45.67539551 57.80414734 46.03540039 58.80599976 C48.01743177 64.31073639 50.03281034 69.80073194 52.1015625 75.2734375 C55.11483191 83.24653179 57.98122557 91.26968395 60.83520508 99.30096436 C62.4547441 103.85799792 64.07881757 108.41341429 65.703125 112.96875 C66.04601562 113.9305014 66.38890625 114.89225281 66.7421875 115.88314819 C69.3929706 123.3123126 72.06021002 130.73547272 74.734375 138.15625 C75.13162781 139.25865021 75.52888062 140.36105042 75.93817139 141.49685669 C77.87234686 146.86285764 79.80806786 152.22829759 81.74511719 157.59326172 C85.20063564 167.16979935 88.6414572 176.75153785 92.03125 186.3515625 C92.33244751 187.19786224 92.63364502 188.04416199 92.94396973 188.91610718 C95 194.76796183 95 194.76796183 95 197 C95.66 197 96.32 197 97 197 C97.16385696 196.42631683 97.32771393 195.85263367 97.49653625 195.26156616 C99.5748978 188.14652206 102.01413283 181.1924701 104.54296875 174.2265625 C104.98328934 173.00705902 105.42360992 171.78755554 105.87727356 170.53109741 C107.06432231 167.24380906 108.25473826 163.95774974 109.44586182 160.67193604 C110.69956926 157.21167872 111.95012226 153.75028141 113.20117188 150.2890625 C119.39496916 133.15829769 125.61252646 116.03614931 131.85107422 98.92163086 C135.59239552 88.65248081 139.30991838 78.37492105 143.01016617 68.09090805 C143.76765574 65.98568119 144.52538568 63.88054099 145.28317261 61.77542114 C147.52887712 55.5363281 149.77366368 49.29691418 152.01352406 43.05572033 C152.71582315 41.09980196 153.41907499 39.14422922 154.12272644 37.188797 C154.98828181 34.78322716 155.85223991 32.37708177 156.71430969 29.97026062 C158.66054827 24.56757847 160.68928533 19.25641479 163 14 C164.06045766 10.8714612 165.05010688 7.72716794 166.03515625 4.57421875 C167 2 167 2 169 0 C171.33837891 -0.22705078 171.33837891 -0.22705078 174.2265625 -0.1953125 C175.7734375 -0.18564453 175.7734375 -0.18564453 177.3515625 -0.17578125 C178.97191406 -0.15064453 178.97191406 -0.15064453 180.625 -0.125 C181.71296875 -0.11597656 182.8009375 -0.10695312 183.921875 -0.09765625 C186.61480152 -0.07403409 189.30729255 -0.04109556 192 0 C190.77857912 7.92771289 188.58124937 14.83750127 185 22 C184.33337187 23.93044396 183.68992274 25.86896002 183.0625 27.8125 C181.89544541 31.41975965 180.67409109 34.88137058 179.0625 38.3125 C177.22167499 42.27568795 175.84346735 46.34811419 174.5 50.5 C172.93968812 55.3117473 171.22772703 59.93857937 169.08984375 64.5234375 C166.73590618 69.87252861 164.80690306 75.40653068 162.78222656 80.88720703 C161.53264388 84.2623283 160.26569103 87.63089437 159 91 C158.49472028 92.34762949 157.98951188 93.69528571 157.484375 95.04296875 C156.53795004 97.5669735 155.58980767 100.09031006 154.640625 102.61328125 C150.98709897 112.33207101 147.37735048 122.066806 143.77832031 131.8059082 C141.82583615 137.0858488 139.86489064 142.36204116 137.8757019 147.62828064 C134.41385881 156.80551391 131.10403969 166.03390021 127.82064819 175.27627563 C122.6576756 189.80581058 117.45786882 204.32156785 112.1875 218.8125 C111.93506531 219.50745575 111.68263062 220.2024115 111.42254639 220.91842651 C110.71370126 222.86916574 110.00362107 224.81944975 109.29296875 226.76953125 C108.69778442 228.40305542 108.69778442 228.40305542 108.09057617 230.06958008 C107.73068604 231.03661865 107.3707959 232.00365723 107 233 C106.66395752 233.91225342 106.32791504 234.82450684 105.98168945 235.7644043 C105 238 105 238 103 240 C99.84765625 240.37109375 99.84765625 240.37109375 96.0625 240.4375 C94.81597656 240.47746094 93.56945312 240.51742187 92.28515625 240.55859375 C89 240 89 240 87.50146484 238.03100586 C85.55512956 234.10194041 84.11914475 230.08669432 82.69140625 225.9453125 C82.21312126 224.58141136 82.21312126 224.58141136 81.72517395 223.18995667 C81.031313 221.21046201 80.33979103 219.23014629 79.65032959 217.24911499 C77.77318712 211.8581889 75.87663838 206.47410116 73.98046875 201.08984375 C73.58120178 199.95523209 73.18193481 198.82062042 72.77056885 197.65162659 C68.06220441 184.29757831 63.22291238 170.99139063 58.375 157.6875 C57.74708054 155.96288544 57.74708054 155.96288544 57.10647583 154.20343018 C48.48501109 130.51312913 48.48501109 130.51312913 39.7041626 106.88160706 C38.67646106 104.13546508 37.66811097 101.38234878 36.66015625 98.62890625 C36.23669922 97.47712891 35.81324219 96.32535156 35.37695312 95.13867188 C34.50238049 92.75926252 33.6299753 90.37905534 32.75976562 87.99804688 C30.62615263 82.20588657 28.40260219 76.51636649 25.83764648 70.90209961 C24.70178449 68.3228222 23.83672127 65.68946122 23 63 C21.83443663 59.39403832 20.594248 55.93759726 19 52.5 C17.405752 49.06240274 16.16556337 45.60596168 15 42 C13.86748394 38.5014911 12.68366136 35.14236745 11.125 31.8125 C8.77226453 26.74435443 7.00144375 21.48335044 5.19384766 16.20239258 C4.01856413 12.79029182 2.79105297 9.45931412 1.31640625 6.1640625 C0 3 0 3 0 0 Z " fill="#C57660" transform="translate(833,133)"/>
<path d="M0 0 C1.08518111 0.91447846 2.16804738 1.83170407 3.25 2.75 C3.85328125 3.26046875 4.4565625 3.7709375 5.078125 4.296875 C7.1368643 6.12128625 9.07241968 8.03830322 11 10 C10.23816406 10.81082031 9.47632813 11.62164062 8.69140625 12.45703125 C-1.56925002 23.43556617 -10.97194845 34.99171316 -20 47 C-20.40863281 47.53963379 -20.81726563 48.07926758 -21.23828125 48.63525391 C-31.00637285 61.60898509 -40.07485583 75.83246545 -46 91 C-46.23525391 91.59925293 -46.47050781 92.19850586 -46.71289062 92.81591797 C-53.65044704 110.73501147 -57.23208929 128.59167171 -57.25 147.8125 C-57.25100708 148.55643005 -57.25201416 149.30036011 -57.25305176 150.0668335 C-57.24300058 161.017004 -56.72756067 171.34510343 -54 182 C-53.68272115 183.34093967 -53.36633544 184.68209093 -53.05078125 186.0234375 C-51.34651917 193.02880679 -49.23079189 199.55860866 -46 206 C-45.41557859 207.22604444 -44.83235897 208.45266208 -44.25 209.6796875 C-37.56711593 223.59665579 -29.24726024 235.49512146 -19 247 C-18.12601562 247.98419922 -18.12601562 247.98419922 -17.234375 248.98828125 C5.50529561 273.0486903 39.72590832 288.14992506 72.72265625 289.25 C113.0304651 289.96540565 149.16920469 276.06528693 178.55078125 248.484375 C194.86118468 231.93985095 210.36984419 208.15077906 215 185 C223.58 185.66 232.16 186.32 241 187 C241 187.33 241 187.66 241 188 C237.04 188 233.08 188 229 188 C228.88527344 188.99515625 228.77054688 189.9903125 228.65234375 191.015625 C225.34889682 213.84776776 210.42705884 236.31427757 195.01953125 252.828125 C193.24915862 254.73204605 191.58614232 256.67891151 189.9375 258.6875 C186.63207016 262.54982291 182.92876376 265.78437818 179 269 C178.07445312 269.763125 177.14890625 270.52625 176.1953125 271.3125 C161.86197176 282.87481973 146.30065577 290.81621815 129 297 C127.57905029 297.51240234 127.57905029 297.51240234 126.12939453 298.03515625 C101.53657606 306.60302825 72.31658611 308.5456617 47 302 C46.28811523 301.81775879 45.57623047 301.63551758 44.84277344 301.44775391 C4.2930663 290.79878518 -30.91618121 265.07790385 -52.27539062 228.8359375 C-72.78637473 192.78828669 -79.29307872 149.11344999 -68.67578125 108.80078125 C-67.28072701 103.80987869 -65.69767769 98.89555461 -64 94 C-63.65412842 92.99960693 -63.65412842 92.99960693 -63.30126953 91.97900391 C-56.90347482 73.92858091 -47.00443197 57.57318455 -36 42 C-35.5992627 41.43200684 -35.19852539 40.86401367 -34.78564453 40.27880859 C-29.17655685 32.4066183 -22.93004791 25.11448109 -16.58789062 17.83496094 C-14.93511568 15.9250199 -13.30145126 14.00007386 -11.671875 12.0703125 C-11.13022705 11.43077637 -10.5885791 10.79124023 -10.03051758 10.13232422 C-8.99129927 8.90437431 -7.95455676 7.67432358 -6.9206543 6.44189453 C-4.72891687 3.86289382 -2.83619902 1.89079935 0 0 Z " fill="#D9937D" transform="translate(289,382)"/>
<path d="M0 0 C2.76681538 0.06893749 3.94105034 0.30122302 6.04736328 2.13720703 C6.86309814 3.12503174 6.86309814 3.12503174 7.6953125 4.1328125 C8.59914673 5.22456787 8.59914673 5.22456787 9.52124023 6.33837891 C12.28366033 9.86472845 14.91711913 13.46564939 17.5 17.125 C21.70205597 23.01273623 25.94970809 28.85530011 30.3125 34.625 C35.11682917 40.98742569 39.79935087 47.43021496 44.45043945 53.90527344 C48.07507788 58.94060833 51.76221193 63.92318318 55.5 68.875 C59.5472798 74.23839911 63.50561121 79.65258509 67.39013672 85.13476562 C70.91053159 90.0913484 74.51088731 94.98645003 78.125 99.875 C85.4680743 109.81167879 92.69990799 119.82612747 99.91699219 129.85449219 C106.0048875 138.31093036 112.12118741 146.74388909 118.3125 155.125 C122.8661128 161.28917495 127.39164367 167.47201477 131.875 173.6875 C132.40520752 174.42250732 132.93541504 175.15751465 133.48168945 175.91479492 C136.21380229 179.70549234 138.94050945 183.50002391 141.6640625 187.296875 C147.28102884 195.11609167 152.94796871 202.86799907 158.8984375 210.4375 C160.98702596 213.19524787 162.98453119 215.98764917 164.96337891 218.82421875 C165.59128326 219.72358154 166.21918762 220.62294434 166.86611938 221.54956055 C167.34342499 222.23445557 167.82073059 222.91935059 168.3125 223.625 C168.31581015 222.48786875 168.31912029 221.3507375 168.32253075 220.17914772 C168.40342006 192.54743992 168.49570313 164.91578824 168.60002708 137.28415871 C168.65021124 123.92187193 168.69671369 110.55959378 168.734375 97.19726562 C168.76725136 85.55463001 168.80705822 73.91204259 168.85529006 62.26946008 C168.88059849 56.10122841 168.90236682 49.93302888 168.91584396 43.76475906 C168.92862503 37.96509404 168.95063625 32.16553903 168.97988319 26.36593437 C168.98899005 24.23176064 168.99465638 22.09756917 168.99671364 19.963377 C169.00001433 17.0606326 169.01543168 14.1582043 169.0340271 11.25552368 C169.03209237 10.40144979 169.03015763 9.5473759 169.02816427 8.66742098 C169.08425758 2.85324242 169.08425758 2.85324242 171.3125 0.625 C174.3125 0.375 174.3125 0.375 177.3125 0.625 C180.00481708 3.31731708 179.55685229 5.39197126 179.57998681 9.05069351 C179.57552537 9.96176739 179.57106392 10.87284126 179.56646729 11.81152344 C179.57114726 13.25754755 179.57114726 13.25754755 179.57592177 14.73278427 C179.58393914 17.98337556 179.5775636 21.23378211 179.57128906 24.484375 C179.57399727 26.80651967 179.57755723 29.12866349 179.58190918 31.45080566 C179.59105576 37.77295523 179.58747959 44.09503979 179.58115101 50.41719055 C179.57661381 56.35153512 179.58006962 62.28587151 179.5830054 68.22021627 C179.58871338 80.69009538 179.58214347 93.15994511 179.57140467 105.62981939 C179.56246872 116.33786306 179.56402064 127.04586337 179.57324219 137.75390625 C179.58393657 150.17807352 179.58816402 162.60221503 179.58201766 175.02638626 C179.57889261 181.60707898 179.57850325 188.1877418 179.58509064 194.76843262 C179.59084938 200.95386238 179.58689428 207.1392099 179.57530212 213.32463074 C179.57264763 215.60072187 179.57343398 217.87681988 179.57782745 220.15290833 C179.58325332 223.24819258 179.57648493 226.34320956 179.56646729 229.43847656 C179.57315945 230.80508738 179.57315945 230.80508738 179.57998681 232.19930649 C179.54079998 238.39670002 179.54079998 238.39670002 177.3125 240.625 C173.96315536 241.31796786 172.48480625 241.58235671 169.3125 240.625 C166.57189991 238.25650725 164.62284317 235.39220319 162.5703125 232.42285156 C161.14558912 230.38642629 159.67115992 228.39232735 158.1875 226.3984375 C155.1593768 222.32748553 152.15632412 218.23881424 149.15917969 214.14501953 C146.21858884 210.13222488 143.26505961 206.12899128 140.3125 202.125 C139.14709673 200.54299724 137.98173223 198.96096594 136.81640625 197.37890625 C134.47237983 194.19749389 132.12579118 191.01799384 129.77734375 187.83984375 C122.42914512 177.89087247 115.14731817 167.89697757 107.92138672 157.85888672 C105.22237882 154.11140231 102.51718506 150.36838799 99.8125 146.625 C96.57118547 142.13889621 93.33108046 137.65195169 90.09765625 133.16015625 C83.96433905 124.64496829 77.77989321 116.17049816 71.54321289 107.73071289 C67.05433637 101.64955095 62.62259187 95.52904491 58.20703125 89.39453125 C54.27857895 83.94416038 50.30535479 78.52832922 46.3125 73.125 C40.12973579 64.75576302 34.0224108 56.33442084 27.94335938 47.88964844 C25.13245865 43.98636772 22.31608416 40.08704176 19.5 36.1875 C18.99718506 35.49068115 18.49437012 34.7938623 17.97631836 34.07592773 C15.03035284 29.99523419 12.07528413 25.92127689 9.11450195 21.85131836 C8.40058792 20.86989365 7.68667389 19.88846893 6.9511261 18.87730408 C6.14000618 17.76241356 6.14000618 17.76241356 5.3125 16.625 C5.30918985 17.76728498 5.30587971 18.90956997 5.30246925 20.08646965 C5.2215801 47.84335526 5.12929707 75.60018502 5.02497292 103.35699272 C5.01499453 106.02591823 5.00503239 108.69484379 4.99511719 111.36376953 C4.99265119 112.02716139 4.9901852 112.69055325 4.98764448 113.37404789 C4.94788184 124.12651648 4.91515005 134.87899563 4.88500018 145.63149498 C4.85392557 156.65819772 4.81518432 167.68485422 4.76970994 178.71150696 C4.74440142 184.90768432 4.72263311 191.10382968 4.70915604 197.30004501 C4.69637506 203.12597461 4.67436393 208.95179469 4.64511681 214.77766418 C4.63600989 216.92151332 4.6303436 219.0653801 4.62828636 221.20924759 C4.62498572 224.12512861 4.60956849 227.04069493 4.5909729 229.95651245 C4.59290763 230.81447729 4.59484237 231.67244213 4.59683573 232.5564059 C4.54074242 238.39675758 4.54074242 238.39675758 2.3125 240.625 C-0.6875 240.875 -0.6875 240.875 -3.6875 240.625 C-6.37981708 237.93268292 -5.93185229 235.85802874 -5.95498681 232.19930649 C-5.95052537 231.28823261 -5.94606392 230.37715874 -5.94146729 229.43847656 C-5.94458727 228.47446049 -5.94770725 227.51044441 -5.95092177 226.51721573 C-5.95893914 223.26662444 -5.9525636 220.01621789 -5.94628906 216.765625 C-5.94899727 214.44348033 -5.95255723 212.12133651 -5.95690918 209.79919434 C-5.96605576 203.47704477 -5.96247959 197.15496021 -5.95615101 190.83280945 C-5.95161381 184.89846488 -5.95506962 178.96412849 -5.9580054 173.02978373 C-5.96371338 160.55990462 -5.95714347 148.09005489 -5.94640467 135.62018061 C-5.93746872 124.91213694 -5.93902064 114.20413663 -5.94824219 103.49609375 C-5.95893657 91.07192648 -5.96316402 78.64778497 -5.95701766 66.22361374 C-5.95389261 59.64292102 -5.95350325 53.0622582 -5.96009064 46.48156738 C-5.96584938 40.29613762 -5.96189428 34.1107901 -5.95030212 27.92536926 C-5.94764763 25.64927813 -5.94843398 23.37318012 -5.95282745 21.09709167 C-5.95825332 18.00180742 -5.95148493 14.90679044 -5.94146729 11.81152344 C-5.94592873 10.90044956 -5.95039017 9.98937569 -5.95498681 9.05069351 C-5.90408573 1.0006925 -5.90408573 1.0006925 0 0 Z " fill="#C67964" transform="translate(1781.6875,132.375)"/>
<path d="M0 0 C1.13308594 -0.00259827 1.13308594 -0.00259827 2.2890625 -0.00524902 C19.28238326 0.01185231 34.21686331 2.96163993 49.9375 9.4375 C51.34708984 9.95957031 51.34708984 9.95957031 52.78515625 10.4921875 C63.86653278 14.59640103 72.75871006 22.18441096 81.9375 29.4375 C82.79859375 30.09363281 83.6596875 30.74976563 84.546875 31.42578125 C89.7997329 35.62620485 89.7997329 35.62620485 90.5 39.75 C89.9375 42.4375 89.9375 42.4375 88.9375 44.4375 C85.04359322 44.88284418 83.44118961 44.82826805 80.2890625 42.3828125 C79.38929688 41.45210937 78.48953125 40.52140625 77.5625 39.5625 C60.24710388 22.57323584 35.20282981 11.80590076 10.9375 11.4375 C9.58495117 11.40100342 9.58495117 11.40100342 8.20507812 11.36376953 C-4.91882188 11.02709842 -17.29867378 11.15968901 -30.0625 14.4375 C-30.97644531 14.66566406 -31.89039063 14.89382812 -32.83203125 15.12890625 C-50.02484176 19.86708237 -64.68605327 28.8445795 -78.0625 40.4375 C-78.6709375 40.9015625 -79.279375 41.365625 -79.90625 41.84375 C-100.54617333 57.81048314 -112.63392893 87.13948895 -116.65234375 112.1015625 C-120.32816068 144.43231012 -113.36545344 175.74678022 -93.10375977 201.62353516 C-74.18456309 224.94295598 -46.88480506 241.49026482 -16.71398926 244.6862793 C-11.24778481 245.0812321 -5.79037877 245.11131416 -0.3125 245.0625 C0.51211731 245.05985138 1.33673462 245.05720276 2.18634033 245.05447388 C15.84654191 244.97248561 28.13221321 243.46595829 40.9375 238.4375 C42.03626465 238.02854492 42.03626465 238.02854492 43.15722656 237.61132812 C58.52702044 231.82423643 71.32450452 223.05049548 82.9375 211.4375 C86.23464793 211.76721479 87.5601839 212.0601839 89.9375 214.4375 C90.3828125 216.734375 90.3828125 216.734375 89.9375 219.4375 C88.2719898 221.45075409 86.76590481 223.00066178 84.8125 224.6875 C84.2747998 225.16348633 83.73709961 225.63947266 83.18310547 226.12988281 C65.51813718 241.35252579 43.76973149 250.52642331 20.9375 254.4375 C19.55401367 254.69768921 19.55401367 254.69768921 18.14257812 254.96313477 C12.27382026 255.83173596 6.35942644 255.62210278 0.4375 255.625 C-0.84898438 255.63724609 -2.13546875 255.64949219 -3.4609375 255.66210938 C-37.87404859 255.71404063 -67.77063701 241.78330457 -92.5625 218.3125 C-106.76094183 203.7076627 -116.69414591 185.65991523 -123.0625 166.4375 C-123.32224609 165.66116211 -123.58199219 164.88482422 -123.84960938 164.08496094 C-130.32263997 143.85882035 -130.91148142 118.89781523 -125.0625 98.4375 C-124.87445801 97.75042969 -124.68641602 97.06335938 -124.49267578 96.35546875 C-119.16563217 77.26795529 -109.6477524 60.64971047 -97.0625 45.4375 C-96.60762207 44.88481445 -96.15274414 44.33212891 -95.68408203 43.76269531 C-78.19000328 22.83627448 -50.57147 5.23502237 -23.0625 2.4375 C-21.98299072 2.10741943 -20.90348145 1.77733887 -19.79125977 1.43725586 C-13.31598154 -0.29889711 -6.66317759 -0.00036017 0 0 Z " fill="#C57762" transform="translate(1412.0625,124.5625)"/>
<path d="M0 0 C11.22998004 6.40006461 19.01945717 14.16788609 23.3828125 26.52734375 C25.10703326 32.83940339 24.76014896 39.29136207 24.5078125 45.77734375 C28.4678125 45.77734375 32.4278125 45.77734375 36.5078125 45.77734375 C36.5078125 46.10734375 36.5078125 46.43734375 36.5078125 46.77734375 C32.2178125 46.77734375 27.9278125 46.77734375 23.5078125 46.77734375 C23.2809375 48.07671875 23.0540625 49.37609375 22.8203125 50.71484375 C20.42141922 61.21410956 14.0066039 69.3107831 5.171875 75.3828125 C-5.01682742 81.31173319 -17.01606307 82.71223078 -28.50390625 80.08984375 C-30.98132469 79.15643649 -33.19514036 78.09110783 -35.4921875 76.77734375 C-36.65814453 76.12378906 -36.65814453 76.12378906 -37.84765625 75.45703125 C-47.67942112 69.42951711 -53.86821764 60.99125676 -57.03637695 49.86645508 C-59.4690044 38.71702122 -58.12248793 26.27656231 -52.13671875 16.58203125 C-50.68586464 14.53605467 -49.14985443 12.65869585 -47.4921875 10.77734375 C-46.96753906 10.15988281 -46.44289063 9.54242188 -45.90234375 8.90625 C-34.64056645 -3.41545929 -15.0989127 -7.40746031 0 0 Z " fill="#D9937D" transform="translate(405.4921875,80.22265625)"/>
<path d="M0 0 C8.78992245 7.24087874 15.67729894 15.59811764 17.04638672 27.31396484 C18.00985709 41.86888206 15.13026592 51.66805979 6.2890625 63.3203125 C0.50962602 69.86251725 -10.60508885 75.8951874 -19.375 76.55078125 C-32.34904367 76.80334972 -42.2155677 73.94009331 -52.1875 65.3125 C-61.1092987 55.96341209 -64.3880602 46.16967795 -64.25 33.5 C-64.24548828 32.71173828 -64.24097656 31.92347656 -64.23632812 31.11132812 C-64.22461312 29.17835239 -64.20667998 27.24541607 -64.1875 25.3125 C-67.1575 25.3125 -70.1275 25.3125 -73.1875 25.3125 C-73.1875 24.9825 -73.1875 24.6525 -73.1875 24.3125 C-69.8875 24.3125 -66.5875 24.3125 -63.1875 24.3125 C-63.14625 23.52875 -63.105 22.745 -63.0625 21.9375 C-60.70889484 12.18685006 -53.73513019 3.88885148 -45.40625 -1.48046875 C-31.31795164 -9.45247629 -13.49548106 -9.35304575 0 0 Z " fill="#D9947E" transform="translate(228.1875,87.6875)"/>
<path d="M0 0 C1.27423828 -0.00193359 1.27423828 -0.00193359 2.57421875 -0.00390625 C3.91419922 0.00189453 3.91419922 0.00189453 5.28125 0.0078125 C6.17457031 0.00394531 7.06789063 0.00007812 7.98828125 -0.00390625 C8.83777344 -0.00261719 9.68726563 -0.00132812 10.5625 0 C11.34689453 0.00112793 12.13128906 0.00225586 12.93945312 0.00341797 C14.78125 0.1328125 14.78125 0.1328125 15.78125 1.1328125 C15.88150424 4.18979706 15.91562739 7.22426864 15.90823364 10.28173828 C15.90979363 11.2537726 15.91135362 12.22580692 15.91296089 13.22729683 C15.91697541 16.51092127 15.9137795 19.79450014 15.91064453 23.078125 C15.91199837 25.42144803 15.91377821 27.76477085 15.91595459 30.10809326 C15.92053097 36.49220039 15.91873852 42.87629144 15.9155755 49.26039886 C15.91330826 55.25053434 15.91503434 61.2406683 15.9165027 67.23080373 C15.91935759 79.81795522 15.91607032 92.40509943 15.91070233 104.99224973 C15.90623429 115.80408159 15.90701022 126.61590271 15.91162109 137.42773438 C15.91696669 149.96834172 15.9190829 162.50894269 15.91600883 175.04955101 C15.91442463 181.69337547 15.91425362 188.33719393 15.91754532 194.98101807 C15.92042276 201.22550446 15.91845069 207.46997047 15.91265106 213.71445465 C15.91132278 216.01354183 15.91171872 218.31263071 15.91391373 220.61171722 C15.91662256 223.7357973 15.91324738 226.85981094 15.90823364 229.98388672 C15.91046436 230.90633745 15.91269509 231.82878819 15.91499341 232.77919197 C15.89539981 239.01866269 15.89539981 239.01866269 14.78125 240.1328125 C13.37776265 240.23141381 11.96944523 240.26360187 10.5625 240.265625 C9.28826172 240.26755859 9.28826172 240.26755859 7.98828125 240.26953125 C7.09496094 240.26566406 6.20164062 240.26179687 5.28125 240.2578125 C3.94126953 240.26361328 3.94126953 240.26361328 2.57421875 240.26953125 C1.72472656 240.26824219 0.87523437 240.26695312 0 240.265625 C-0.78439453 240.26449707 -1.56878906 240.26336914 -2.37695312 240.26220703 C-4.21875 240.1328125 -4.21875 240.1328125 -5.21875 239.1328125 C-5.31900424 236.07582794 -5.35312739 233.04135636 -5.34573364 229.98388672 C-5.34729363 229.0118524 -5.34885362 228.03981808 -5.35046089 227.03832817 C-5.35447541 223.75470373 -5.3512795 220.47112486 -5.34814453 217.1875 C-5.34949837 214.84417697 -5.35127821 212.50085415 -5.35345459 210.15753174 C-5.35803097 203.77342461 -5.35623852 197.38933356 -5.3530755 191.00522614 C-5.35080826 185.01509066 -5.35253434 179.0249567 -5.3540027 173.03482127 C-5.35685759 160.44766978 -5.35357032 147.86052557 -5.34820233 135.27337527 C-5.34373429 124.46154341 -5.34451022 113.64972229 -5.34912109 102.83789062 C-5.35446669 90.29728328 -5.3565829 77.75668231 -5.35350883 65.21607399 C-5.35192463 58.57224953 -5.35175362 51.92843107 -5.35504532 45.28460693 C-5.35792276 39.04012054 -5.35595069 32.79565453 -5.35015106 26.55117035 C-5.34882278 24.25208317 -5.34921872 21.95299429 -5.35141373 19.65390778 C-5.35412256 16.5298277 -5.35074738 13.40581406 -5.34573364 10.28173828 C-5.34796436 9.35928755 -5.35019509 8.43683681 -5.35249341 7.48643303 C-5.32900808 0.00766291 -5.32900808 0.00766291 0 0 Z " fill="#C3735E" transform="translate(785.21875,132.8671875)"/>
<path d="M0 0 C9.49900377 5.88874051 15.11110582 13.57593767 18.375 24.18359375 C19.56164349 36.34668957 17.11338897 46.63256842 9.67578125 56.5546875 C6.18141786 60.28866438 2.19395018 62.53813218 -2.375 64.74609375 C-2.98730469 65.08511719 -3.59960938 65.42414063 -4.23046875 65.7734375 C-11.39325574 69.20461802 -21.54372413 68.95905237 -29.12890625 67.0546875 C-31.37745908 66.12007163 -33.32843244 65.06262318 -35.375 63.74609375 C-36.06980469 63.32199219 -36.76460938 62.89789062 -37.48046875 62.4609375 C-46.39841143 56.45429318 -51.16503118 47.09805298 -53.375 36.74609375 C-54.34183881 26.96675696 -52.27050467 18.48295154 -46.5625 10.43359375 C-34.6909069 -4.00084948 -16.98880955 -8.96942083 0 0 Z " fill="#FCFBFA" transform="translate(539.375,481.25390625)"/>
<path d="M0 0 C3.625 0.4375 3.625 0.4375 5.55078125 2.32421875 C8.37720613 6.56651749 10.37162529 11.03640303 12.4375 15.6875 C12.90978027 16.73397705 13.38206055 17.7804541 13.86865234 18.85864258 C14.90654493 21.15859787 15.94156956 23.45984896 16.97412109 25.76220703 C19.56759396 31.54321223 22.19556535 37.3085611 24.81918335 43.07592773 C25.75449663 45.13489875 26.68677573 47.19522058 27.6184082 49.25585938 C30.76086106 56.19789703 33.93501992 63.12258891 37.18258667 70.01618958 C38.78125304 73.41044144 40.37055434 76.80904794 41.9598999 80.20767212 C42.73249298 81.85207834 43.50999402 83.49418817 44.2925415 85.13388062 C45.38434958 87.42226089 46.45932348 89.71787994 47.53125 92.015625 C47.86063568 92.69436172 48.19002136 93.37309845 48.52938843 94.07240295 C50.30192545 97.92018042 51.0120259 100.36433239 49.625 104.4375 C46.3125 104.75 46.3125 104.75 42.625 104.4375 C40.33006755 101.25115924 38.77647048 97.7492394 37.1796875 94.171875 C36.74269531 93.19992187 36.30570313 92.22796875 35.85546875 91.2265625 C35.40816406 90.22367188 34.96085937 89.22078125 34.5 88.1875 C33.6035954 86.18138206 32.70526333 84.17612388 31.8046875 82.171875 C31.41007324 81.28725586 31.01545898 80.40263672 30.60888672 79.49121094 C29.79153746 77.49330629 29.79153746 77.49330629 28.625 76.4375 C26.8757128 76.34384994 25.12263746 76.32005562 23.37084961 76.32397461 C21.68921974 76.32408791 21.68921974 76.32408791 19.97361755 76.32420349 C18.7538472 76.32936478 17.53407684 76.33452606 16.27734375 76.33984375 C14.4149984 76.34196617 14.4149984 76.34196617 12.51502991 76.34413147 C9.20894509 76.34879409 5.90292854 76.35778503 2.59686279 76.36883545 C-0.7746115 76.37905173 -4.14609283 76.38362955 -7.51757812 76.38867188 C-14.13673775 76.39972605 -20.75586493 76.41648264 -27.375 76.4375 C-28.50828018 78.5237957 -29.63948779 80.6111708 -30.76953125 82.69921875 C-31.08925903 83.28731323 -31.40898682 83.87540771 -31.73840332 84.48132324 C-33.85905344 88.40473239 -35.67919943 92.31912718 -37.375 96.4375 C-38.67449527 99.12248656 -40.02226065 101.77866748 -41.375 104.4375 C-43.70794775 104.47991723 -46.04202567 104.47842937 -48.375 104.4375 C-48.705 104.1075 -49.035 103.7775 -49.375 103.4375 C-49.16966528 96.17891781 -45.6965152 90.07152535 -42.625 83.625 C-42.0990625 82.50029297 -41.573125 81.37558594 -41.03125 80.21679688 C-38.25394464 74.30127395 -35.40332687 68.43053158 -32.42602539 62.61303711 C-31.34817878 60.38198227 -30.43833577 58.12953542 -29.5625 55.8125 C-27.51877777 50.52384738 -24.97754711 45.52449135 -22.36791992 40.49755859 C-20.12265724 36.12186349 -18.23940612 31.68378914 -16.44628906 27.10546875 C-14.52441751 22.31918519 -12.38249761 17.63279148 -10.25 12.9375 C-9.80785156 11.95007813 -9.36570312 10.96265625 -8.91015625 9.9453125 C-8.48347656 9.00429688 -8.05679688 8.06328125 -7.6171875 7.09375 C-7.04266846 5.82241211 -7.04266846 5.82241211 -6.45654297 4.52539062 C-4.68723634 1.1097901 -3.89092506 0.50437917 0 0 Z " fill="#C47763" transform="translate(1024.375,458.5625)"/>
<path d="M0 0 C3 0.1875 3 0.1875 5 1.1875 C5 77.0875 5 152.9875 5 231.1875 C47.03493758 231.10827425 47.03493758 231.10827425 89.06982422 231.00732422 C97.18579102 230.99829102 97.18579102 230.99829102 100.98098755 230.99661255 C103.64097432 230.99353423 106.3007737 230.98722616 108.96072388 230.97634888 C112.98150209 230.96012349 117.00213839 230.95968539 121.02294922 230.96044922 C122.81088048 230.94965489 122.81088048 230.94965489 124.63493156 230.9386425 C126.25119784 230.94277499 126.25119784 230.94277499 127.90011597 230.94699097 C129.31322461 230.94422559 129.31322461 230.94422559 130.75488091 230.94140434 C133 231.1875 133 231.1875 135 233.1875 C135.25 235.6875 135.25 235.6875 135 238.1875 C132.37976446 240.80773554 131.26281929 240.43870855 127.60986328 240.44146729 C126.46567932 240.44710693 125.32149536 240.45274658 124.14263916 240.45855713 C122.88127136 240.45450867 121.61990356 240.45046021 120.3203125 240.44628906 C118.98337615 240.44899803 117.64644129 240.45255843 116.30950928 240.45690918 C112.67320871 240.46604675 109.0370213 240.46248334 105.40071869 240.45615101 C101.60063871 240.45109807 97.80056862 240.45578049 94.00048828 240.45892334 C87.61814631 240.46256505 81.23585058 240.45775853 74.85351562 240.44824219 C67.46785591 240.43735723 60.08230659 240.44088266 52.69664955 240.451895 C46.36286281 240.46096205 40.02910936 240.46225601 33.69531822 240.45701766 C29.90918543 240.45389474 26.12310458 240.45349739 22.3369751 240.46009064 C18.77800562 240.46585505 15.21917892 240.46188396 11.66022491 240.45030212 C9.7259389 240.44638278 7.79164086 240.4523489 5.85736084 240.45855713 C4.71317688 240.45291748 3.56899292 240.44727783 2.39013672 240.44146729 C1.39166718 240.44071323 0.39319763 240.43995918 -0.63552856 240.43918228 C-3 240.1875 -3 240.1875 -5 238.1875 C-5.19817933 235.09593005 -5.26911252 232.0937945 -5.25396729 229.00097656 C-5.25708727 228.03696049 -5.26020725 227.07294441 -5.26342177 226.07971573 C-5.27143914 222.82912444 -5.2650636 219.57871789 -5.25878906 216.328125 C-5.26149727 214.00598033 -5.26505723 211.68383651 -5.26940918 209.36169434 C-5.27855576 203.03954477 -5.27497959 196.71746021 -5.26865101 190.39530945 C-5.26411381 184.46096488 -5.26756962 178.52662849 -5.2705054 172.59228373 C-5.27621338 160.12240462 -5.26964347 147.65255489 -5.25890467 135.18268061 C-5.24996872 124.47463694 -5.25152064 113.76663663 -5.26074219 103.05859375 C-5.27143657 90.63442648 -5.27566402 78.21028497 -5.26951766 65.78611374 C-5.26639261 59.20542102 -5.26600325 52.6247582 -5.27259064 46.04406738 C-5.27834938 39.85863762 -5.27439428 33.6732901 -5.26280212 27.48786926 C-5.26014763 25.21177813 -5.26093398 22.93568012 -5.26532745 20.65959167 C-5.27075332 17.56430742 -5.26398493 14.46929044 -5.25396729 11.37402344 C-5.25842873 10.46294956 -5.26289017 9.55187569 -5.26748681 8.61319351 C-5.21508558 0.32594285 -5.21508558 0.32594285 0 0 Z " fill="#C77964" transform="translate(1556,132.8125)"/>
<path d="M0 0 C0.90920197 -0.0159874 1.81840393 -0.03197479 2.75515747 -0.04844666 C3.74458344 -0.05380936 4.7340094 -0.05917206 5.75341797 -0.06469727 C6.77805145 -0.07372574 7.80268494 -0.08275421 8.85836792 -0.09205627 C11.03901235 -0.10659887 13.21970082 -0.1154554 15.40039062 -0.11914062 C18.6842247 -0.13088401 21.96608339 -0.17989734 25.24951172 -0.23071289 C43.61083923 -0.37189205 60.70205676 2.2755197 74.70654297 15.24780273 C84.94125581 26.25534083 88.25587451 39.57246951 88.09350586 54.25732422 C87.51779395 69.72353605 81.63002547 82.34539943 70.46044922 93.04467773 C65.64774159 96.87763195 60.37829318 99.22507018 54.62060547 101.30639648 C53.92181274 101.55915344 53.22302002 101.8119104 52.50305176 102.07232666 C45.89550163 104.27161387 39.92737525 104.73264062 32.99560547 104.66967773 C31.92689209 104.67017624 30.85817871 104.67067474 29.75708008 104.67118835 C27.51837282 104.66886371 25.27966215 104.65923135 23.04101562 104.64257812 C19.60246743 104.6187709 16.16468509 104.62205598 12.72607422 104.62866211 C10.54507999 104.62309161 8.36408902 104.61598571 6.18310547 104.60717773 C4.63792236 104.60854485 4.63792236 104.60854485 3.06152344 104.60993958 C2.11293457 104.60040756 1.1643457 104.59087555 0.18701172 104.58105469 C-0.64886475 104.5764473 -1.48474121 104.5718399 -2.34594727 104.5670929 C-4.37939453 104.30639648 -4.37939453 104.30639648 -6.37939453 102.30639648 C-6.63107681 100.50415039 -6.63107681 100.50415039 -6.63336182 98.28295898 C-6.63900146 97.44168457 -6.64464111 96.60041016 -6.65045166 95.73364258 C-6.6464032 94.80890137 -6.64235474 93.88416016 -6.63818359 92.93139648 C-6.64168823 91.95895996 -6.64519287 90.98652344 -6.64880371 89.98461914 C-6.65763255 86.75847308 -6.65176778 83.53254491 -6.64501953 80.30639648 C-6.64636585 78.07202105 -6.6483061 75.83764591 -6.65081787 73.60327148 C-6.6537707 68.91574317 -6.64946637 64.22829097 -6.64013672 59.54077148 C-6.62874214 53.52117861 -6.63530076 47.50176406 -6.64728165 41.48217773 C-6.65449595 36.8669296 -6.65221429 32.251724 -6.64702606 27.63647461 C-6.64568837 25.41642231 -6.64734142 23.1963662 -6.65198517 20.97631836 C-6.65704332 17.87790645 -6.64935012 14.77978655 -6.63818359 11.68139648 C-6.64223206 10.75665527 -6.64628052 9.83191406 -6.65045166 8.87915039 C-6.64481201 8.03787598 -6.63917236 7.19660156 -6.63336182 6.32983398 C-6.63260777 5.59684082 -6.63185371 4.86384766 -6.63107681 4.10864258 C-6.06694978 0.06904261 -3.44268751 0.04578607 0 0 Z M2.62060547 9.30639648 C2.62060547 37.68639648 2.62060547 66.06639648 2.62060547 95.30639648 C37.23298885 97.63724947 37.23298885 97.63724947 66.99560547 83.61889648 C76.76048746 72.99958732 79.32454997 61.06385257 78.99169922 47.11499023 C78.39017435 36.22118225 73.43613697 26.822378 65.62060547 19.30639648 C46.08151836 4.85114708 28.68664819 9.30639648 2.62060547 9.30639648 Z " fill="#C37560" transform="translate(1467.37939453125,458.693603515625)"/>
<path d="M0 0 C1.18279037 0.00142502 2.36558075 0.00285004 3.58421326 0.00431824 C4.23638824 0.00241989 4.88856323 0.00052155 5.5605011 -0.00143433 C7.72013805 -0.00514463 9.87944009 0.00556444 12.03904724 0.01676941 C13.5359493 0.01796106 15.03285212 0.0184144 16.52975464 0.01815796 C19.6679095 0.0197232 22.80595035 0.02801665 25.94407654 0.04142761 C29.9750783 0.05843219 34.00595483 0.06224157 38.03698826 0.06148243 C41.12781987 0.06175378 44.21862388 0.06722901 47.30944633 0.07448387 C48.79626697 0.07767513 50.28309075 0.07963901 51.76991463 0.08037758 C53.84348556 0.08253551 55.91692118 0.09126726 57.99046326 0.10197449 C59.17245804 0.10578629 60.35445282 0.10959808 61.57226562 0.11352539 C64.22264099 0.24723816 64.22264099 0.24723816 65.22264099 1.24723816 C65.41014099 4.18473816 65.41014099 4.18473816 65.22264099 7.24723816 C63.22264099 9.24723816 63.22264099 9.24723816 60.78022766 9.48774719 C59.24134384 9.48108536 59.24134384 9.48108536 57.67137146 9.47428894 C55.92979263 9.47406235 55.92979263 9.47406235 54.1530304 9.47383118 C52.89467377 9.46350861 51.63631714 9.45318604 50.33982849 9.44255066 C49.05528778 9.43972076 47.77074707 9.43689087 46.44728088 9.43397522 C43.03101332 9.42633625 39.61491562 9.40668568 36.19871521 9.38456726 C32.71322469 9.36411441 29.22770592 9.3548652 25.74217224 9.34489441 C18.90217843 9.32450087 12.06265118 9.28535586 5.22264099 9.24723816 C5.22264099 21.45723816 5.22264099 33.66723816 5.22264099 46.24723816 C10.8184613 46.21243347 10.8184613 46.21243347 16.52732849 46.17692566 C20.12807373 46.16134205 23.72881525 46.14918994 27.32957458 46.13737488 C29.83805514 46.12729805 32.34652391 46.11363637 34.85496521 46.09635925 C38.45411587 46.07218479 42.05311166 46.06077204 45.65232849 46.05192566 C46.77944244 46.04160309 47.9065564 46.03128052 49.06782532 46.02064514 C50.10875336 46.02049408 51.1496814 46.02034302 52.22215271 46.02018738 C53.1414859 46.01574615 54.06081909 46.01130493 55.00801086 46.00672913 C57.22264099 46.24723816 57.22264099 46.24723816 59.22264099 48.24723816 C59.47264099 50.74723816 59.47264099 50.74723816 59.22264099 53.24723816 C57.22264099 55.24723816 57.22264099 55.24723816 55.00801086 55.48774719 C53.62901108 55.48108536 53.62901108 55.48108536 52.22215271 55.47428894 C51.18122467 55.47413788 50.14029663 55.47398682 49.06782532 55.47383118 C47.37715439 55.45834732 47.37715439 55.45834732 45.65232849 55.44255066 C44.50096405 55.43972076 43.34959961 55.43689087 42.16334534 55.43397522 C38.47467287 55.42275224 34.78624046 55.39764372 31.09764099 55.37223816 C28.60155074 55.3622111 26.10545669 55.35308478 23.60935974 55.34489441 C17.4802859 55.32450494 11.35173314 55.28535967 5.22264099 55.24723816 C5.22264099 68.44723816 5.22264099 81.64723816 5.22264099 95.24723816 C11.79299255 95.21243347 11.79299255 95.21243347 18.49607849 95.17692566 C21.98321925 95.1640686 25.47035334 95.15322128 28.95750427 95.14373779 C32.64163448 95.13316549 36.32567306 95.11903175 40.00975037 95.09635925 C43.55643754 95.07466825 47.10303571 95.06267749 50.64978409 95.05748367 C52.00461351 95.05378115 53.35943793 95.04655127 54.71422958 95.03577805 C56.60809856 95.02131368 58.50205664 95.02042167 60.39598083 95.02018738 C61.47519806 95.01574615 62.55441528 95.01130493 63.66633606 95.00672913 C66.22264099 95.24723816 66.22264099 95.24723816 68.22264099 97.24723816 C68.34764099 100.37223816 68.34764099 100.37223816 68.22264099 103.24723816 C65.35623002 104.68044365 62.89710041 104.38245326 59.69334412 104.39250183 C59.02326828 104.39586044 58.35319244 104.39921906 57.66281128 104.40267944 C55.44315244 104.41219505 53.22356897 104.41413272 51.00389099 104.41520691 C49.46454334 104.4184186 47.925196 104.4217826 46.385849 104.42529297 C43.15777376 104.43128543 39.92972531 104.4331327 36.7016449 104.43254089 C32.55860209 104.43243916 28.41573021 104.44610267 24.27272797 104.4633131 C21.09350287 104.47441213 17.9143194 104.47646077 14.7350769 104.47593117 C13.20720835 104.47711402 11.67933881 104.48155282 10.15148926 104.48926353 C8.01818226 104.49902322 5.88525046 104.49620182 3.75193787 104.49015808 C2.53663391 104.4915831 1.32132996 104.49300812 0.06919861 104.49447632 C-2.77735901 104.24723816 -2.77735901 104.24723816 -4.77735901 102.24723816 C-5.02904129 100.44499207 -5.02904129 100.44499207 -5.03132629 98.22380066 C-5.03696594 97.38252625 -5.04260559 96.54125183 -5.04841614 95.67448425 C-5.04436768 94.74974304 -5.04031921 93.82500183 -5.03614807 92.87223816 C-5.03965271 91.89980164 -5.04315735 90.92736511 -5.04676819 89.92546082 C-5.05559703 86.69931476 -5.04973225 83.47338659 -5.04298401 80.24723816 C-5.04433033 78.01286273 -5.04627058 75.77848758 -5.04878235 73.54411316 C-5.05173518 68.85658485 -5.04743085 64.16913264 -5.0381012 59.48161316 C-5.02670662 53.46202028 -5.03326524 47.44260574 -5.04524612 41.42301941 C-5.05246042 36.80777127 -5.05017877 32.19256567 -5.04499054 27.57731628 C-5.04365285 25.35726399 -5.0453059 23.13720788 -5.04994965 20.91716003 C-5.0550078 17.81874812 -5.0473146 14.72062823 -5.03614807 11.62223816 C-5.04019653 10.69749695 -5.044245 9.77275574 -5.04841614 8.81999207 C-5.04277649 7.97871765 -5.03713684 7.13744324 -5.03132629 6.27067566 C-5.03057224 5.5376825 -5.02981819 4.80468933 -5.02904129 4.04948425 C-4.56906368 0.75567732 -3.1191237 0.27766176 0 0 Z " fill="#C47762" transform="translate(1712.777359008789,458.7527618408203)"/>
<path d="M0 0 C3 0.25 3 0.25 5 2.25 C5.19817933 5.34156995 5.26911252 8.3437055 5.25396729 11.43652344 C5.25864726 12.88254755 5.25864726 12.88254755 5.26342177 14.35778427 C5.27143914 17.60837556 5.2650636 20.85878211 5.25878906 24.109375 C5.26149727 26.43151967 5.26505723 28.75366349 5.26940918 31.07580566 C5.27855576 37.39795523 5.27497959 43.72003979 5.26865101 50.04219055 C5.26411381 55.97653512 5.26756962 61.91087151 5.2705054 67.84521627 C5.27621338 80.31509538 5.26964347 92.78494511 5.25890467 105.25481939 C5.24996872 115.96286306 5.25152064 126.67086337 5.26074219 137.37890625 C5.27143657 149.80307352 5.27566402 162.22721503 5.26951766 174.65138626 C5.26639261 181.23207898 5.26600325 187.8127418 5.27259064 194.39343262 C5.27834938 200.57886238 5.27439428 206.7642099 5.26280212 212.94963074 C5.26014763 215.22572187 5.26093398 217.50181988 5.26532745 219.77790833 C5.27075332 222.87319258 5.26398493 225.96820956 5.25396729 229.06347656 C5.26065945 230.43008738 5.26065945 230.43008738 5.26748681 231.82430649 C5.22829998 238.02170002 5.22829998 238.02170002 3 240.25 C0 240.5 0 240.5 -3 240.25 C-5.69231708 237.55768292 -5.24435229 235.48302874 -5.26748681 231.82430649 C-5.26302537 230.91323261 -5.25856392 230.00215874 -5.25396729 229.06347656 C-5.25708727 228.09946049 -5.26020725 227.13544441 -5.26342177 226.14221573 C-5.27143914 222.89162444 -5.2650636 219.64121789 -5.25878906 216.390625 C-5.26149727 214.06848033 -5.26505723 211.74633651 -5.26940918 209.42419434 C-5.27855576 203.10204477 -5.27497959 196.77996021 -5.26865101 190.45780945 C-5.26411381 184.52346488 -5.26756962 178.58912849 -5.2705054 172.65478373 C-5.27621338 160.18490462 -5.26964347 147.71505489 -5.25890467 135.24518061 C-5.24996872 124.53713694 -5.25152064 113.82913663 -5.26074219 103.12109375 C-5.27143657 90.69692648 -5.27566402 78.27278497 -5.26951766 65.84861374 C-5.26639261 59.26792102 -5.26600325 52.6872582 -5.27259064 46.10656738 C-5.27834938 39.92113762 -5.27439428 33.7357901 -5.26280212 27.55036926 C-5.26014763 25.27427813 -5.26093398 22.99818012 -5.26532745 20.72209167 C-5.27075332 17.62680742 -5.26398493 14.53179044 -5.25396729 11.43652344 C-5.25842873 10.52544956 -5.26289017 9.61437569 -5.26748681 8.67569351 C-5.21537753 0.43461479 -5.21537753 0.43461479 0 0 Z " fill="#C77863" transform="translate(1716,132.75)"/>
<path d="M0 0 C0.85851562 0.60328125 1.71703125 1.2065625 2.6015625 1.828125 C1.8515625 6.578125 1.8515625 6.578125 -0.3984375 8.828125 C-4.83890258 8.47339455 -8.52680504 7.09788617 -12.5859375 5.328125 C-23.95023213 0.41074468 -33.42963623 1.15562648 -45.3046875 4.46484375 C-49.6253289 6.36876275 -52.38580151 9.04395682 -54.7109375 13.140625 C-55.98578372 18.12411479 -55.94167742 22.19840525 -54.3359375 27.015625 C-50.14110872 33.10489258 -44.23011716 35.61750095 -37.2734375 37.453125 C-36.15811646 37.76757568 -36.15811646 37.76757568 -35.02026367 38.08837891 C-30.61306158 39.3099995 -26.19536082 40.30073798 -21.7109375 41.203125 C-10.93953189 43.62229891 -0.58326111 48.3355951 5.6015625 57.828125 C8.98295667 63.24761976 8.3291323 69.70224712 7.6015625 75.828125 C5.05965718 83.36973381 0.76308167 89.25824918 -6.3984375 92.828125 C-21.07930836 98.97512661 -36.14542279 100.18729233 -51.3984375 94.828125 C-64.00073373 89.09477265 -64.00073373 89.09477265 -68.3984375 83.828125 C-68.23693545 80.43658205 -67.81546993 79.24515743 -65.3984375 76.828125 C-61.59118342 76.828125 -59.54458554 78.40185932 -56.7109375 80.703125 C-47.50576444 87.95937673 -34.68126098 88.56819512 -23.3984375 87.828125 C-16.09521844 86.49943395 -9.79741065 84.87546927 -5.0859375 78.890625 C-2.44766163 73.84021118 -2.65691158 68.35801511 -3.3984375 62.828125 C-6.01231115 57.24394038 -11.86367872 54.9509502 -17.3984375 52.828125 C-21.30013634 51.72946676 -25.21961206 50.78067305 -29.1640625 49.8515625 C-56.09338531 43.46176481 -56.09338531 43.46176481 -62.4609375 33.640625 C-66.33716055 26.64687024 -66.78973114 18.09157323 -64.75 10.375 C-63.80395068 8.32118353 -62.7598059 6.6324461 -61.3984375 4.828125 C-60.93566406 4.21453125 -60.47289062 3.6009375 -59.99609375 2.96875 C-46.1278024 -12.90010172 -16.42113281 -10.8707324 0 0 Z " fill="#C37662" transform="translate(832.3984375,466.171875)"/>
<path d="M0 0 C3.0625 0.1875 3.0625 0.1875 5.0625 2.1875 C5.3140564 4.84614563 5.3140564 4.84614563 5.31787109 8.2668457 C5.32483002 9.54610428 5.33178894 10.82536285 5.33895874 12.14338684 C5.3382777 12.83016825 5.33759666 13.51694965 5.33689499 14.22454262 C5.3359285 16.38337929 5.34889209 18.54171955 5.36587524 20.70048523 C5.41206724 26.83975187 5.43668555 32.97897389 5.44335938 39.1184082 C5.44842742 42.8751521 5.47295599 46.63138934 5.50868607 50.38796043 C5.51837829 51.80901202 5.52087488 53.23013435 5.51551437 54.65120888 C5.4741312 66.17929331 6.53754124 78.323119 14.23046875 87.53515625 C19.50922854 92.29616988 26.00878508 94.82883653 33.0625 95.1875 C34.01898437 95.26097656 34.97546875 95.33445312 35.9609375 95.41015625 C45.09626867 95.83328917 53.03292179 94.29692447 60.26171875 88.390625 C67.58764885 80.71145299 69.14979584 70.87086811 69.23608398 60.57128906 C69.24957382 59.27684875 69.26306366 57.98240845 69.27696228 56.64874268 C69.28202223 55.96490761 69.28708218 55.28107254 69.29229546 54.5765152 C69.30881204 52.42468518 69.33204752 50.27302236 69.35719299 48.12127686 C69.42771753 42.00753172 69.4883077 35.89372416 69.53930664 29.77978516 C69.57104009 26.03155191 69.61228262 22.28352241 69.65950203 18.5354538 C69.67553465 17.1081074 69.68785041 15.68071431 69.69640923 14.25330353 C69.70852066 12.26417225 69.73369832 10.27513334 69.75952148 8.28613281 C69.76982895 7.15395325 69.78013641 6.02177368 69.79075623 4.85528564 C70.0625 2.1875 70.0625 2.1875 72.0625 0.1875 C75.125 0 75.125 0 78.0625 0.1875 C79.93008595 2.05508595 79.20007571 5.20088182 79.20776367 7.69165039 C79.21112228 8.37144958 79.2144809 9.05124878 79.21794128 9.75164795 C79.22748558 12.01283571 79.22939677 14.27394956 79.23046875 16.53515625 C79.23368123 18.10639985 79.2370453 19.67764314 79.24055481 21.24888611 C79.24655638 24.55191744 79.24839389 27.85492258 79.24780273 31.15795898 C79.24770158 35.37554598 79.26130063 39.59296285 79.27857494 43.81050968 C79.28974162 47.0611802 79.29172044 50.31181037 79.29119301 53.56249809 C79.29236814 55.1161094 79.29676357 56.66972192 79.30452538 58.22331429 C79.36635354 71.8890708 78.12878715 83.86211083 68.5625 94.4375 C58.67363528 103.72361487 46.48265908 105.69454795 33.5 105.4609375 C21.81676079 104.95406157 12.9604559 100.48863648 5.0625 92.05078125 C-2.10858776 83.49029524 -4.05964721 74.20539655 -4.06689453 63.18823242 C-4.06864685 62.51596619 -4.07039917 61.84369995 -4.07220459 61.15106201 C-4.07657529 58.94833734 -4.07370376 56.74569411 -4.0703125 54.54296875 C-4.07098652 53.00694259 -4.07195736 51.47091654 -4.07321167 49.93489075 C-4.07468181 46.72652158 -4.0725546 43.51818036 -4.06787109 40.30981445 C-4.06215008 36.18925623 -4.06547204 32.0687628 -4.07144356 27.9482069 C-4.07504713 24.7819011 -4.07391195 21.61561083 -4.07131577 18.44930458 C-4.07064717 16.9289887 -4.07147256 15.40867142 -4.07379532 13.88835716 C-4.0763211 11.77213134 -4.07248347 9.65601271 -4.06689453 7.53979492 C-4.06609894 6.33433517 -4.06530334 5.12887543 -4.06448364 3.8868866 C-3.88726893 0.11970054 -3.79359688 0.24214448 0 0 Z " fill="#C47561" transform="translate(1220.9375,458.8125)"/>
<path d="M0 0 C4.51913163 2.60747303 7.66973365 5.61643027 10.5625 9.9375 C10.975 10.53304687 11.3875 11.12859375 11.8125 11.7421875 C15.2490848 17.493694 15.53932016 23.39448911 14.5625 29.9375 C11.45019712 39.13409989 6.03437332 44.5446768 -2.4375 48.9375 C-8.7060695 51.02702317 -15.94362579 50.63251413 -22.25 48.875 C-29.13197353 44.69183962 -34.14750975 40.55461429 -36.8125 32.75 C-38.51295526 25.09795135 -38.69903529 17.42535533 -34.5625 10.57421875 C-34.19125 10.03410156 -33.82 9.49398437 -33.4375 8.9375 C-32.86 8.050625 -32.2825 7.16375 -31.6875 6.25 C-23.28563843 -2.38524662 -11.15641521 -5.17128669 0 0 Z " fill="#FCFBFB" transform="translate(400.4375,95.0625)"/>
<path d="M0 0 C6.50178631 3.71530647 11.43878412 8.82885386 13.8046875 16.03125 C15.17785155 26.43838803 13.30297949 33.68092107 7.6796875 42.28125 C2.56668669 47.17194642 -3.07656945 50.30096395 -10.2578125 50.46875 C-11.90655875 50.36071982 -13.55336286 50.21573872 -15.1953125 50.03125 C-15.94683594 49.98226562 -16.69835937 49.93328125 -17.47265625 49.8828125 C-24.77962789 48.93252093 -29.40387153 44.34620026 -34.1953125 39.03125 C-38.55885594 32.61427435 -38.0166063 24.50893449 -37.1953125 17.03125 C-34.67671877 8.47922506 -29.49013407 3.55761563 -22.0078125 -0.84375 C-14.81637896 -2.96581236 -6.9410867 -3.11052848 0 0 Z " fill="#FCFBFB" transform="translate(216.1953125,97.96875)"/>
<path d="M0 0 C0.66 0 1.32 0 2 0 C2.52851562 1.20269531 3.05703125 2.40539062 3.6015625 3.64453125 C6.97339476 11.23189523 10.52436823 18.73761186 14.046875 26.25585938 C16.90163843 32.37751759 19.71181041 38.5165634 22.4140625 44.70703125 C22.91115723 45.84245361 23.40825195 46.97787598 23.92041016 48.14770508 C25 51 25 51 25 54 C8.83 54 -7.34 54 -24 54 C-20.82442748 44.47328244 -20.82442748 44.47328244 -18 40 C-17.25278822 38.14015171 -16.5475528 36.26312972 -15.875 34.375 C-11.43990938 22.55258519 -5.66751267 11.27076783 0 0 Z " fill="#FAF7F6" transform="translate(1024,472)"/>
<path d="M0 0 C1.98 0 3.96 0 6 0 C7.65406568 3.30813136 7.11124708 6.99564782 7.08229065 10.63052368 C7.07906152 11.5346976 7.07583239 12.43887152 7.07250541 13.37044466 C7.06038378 16.4183917 7.04102067 19.46625067 7.02172852 22.51416016 C7.01159065 24.6917654 7.00189645 26.86937275 6.99261475 29.04698181 C6.9660844 34.97438916 6.93331503 40.90174784 6.89946485 46.8291173 C6.86517057 53.0177646 6.83655954 59.20643804 6.80735779 65.39511108 C6.75435535 76.453976 6.69702137 87.51281283 6.63741725 98.57164399 C6.56194897 112.58576996 6.4923009 126.5999211 6.42356598 140.61408162 C6.28874535 168.07608848 6.14672514 195.53805435 6 223 C5.67 223 5.34 223 5 223 C4.67 150.4 4.34 77.8 4 3 C2.68 2.67 1.36 2.34 0 2 C0 1.34 0 0.68 0 0 Z " fill="#C67762" transform="translate(1713,133)"/>
<path d="M0 0 C0.33 1.65 0.66 3.3 1 5 C0.54149658 5.34256836 0.08299316 5.68513672 -0.3894043 6.03808594 C-2.489416 7.60786124 -4.58846416 9.17892009 -6.6875 10.75 C-7.7693457 11.55824219 -7.7693457 11.55824219 -8.87304688 12.3828125 C-9.57880859 12.91132813 -10.28457031 13.43984375 -11.01171875 13.984375 C-12.04558716 14.7573291 -12.04558716 14.7573291 -13.1003418 15.54589844 C-14.70748193 16.77609079 -16.26616071 18.06920238 -17.8125 19.375 C-20.65250473 21.4847178 -22.54766236 21.32114769 -26 21 C-26.33 19.68 -26.66 18.36 -27 17 C-24.96004487 15.10229694 -22.91810165 13.20681055 -20.875 11.3125 C-20.02035156 10.51682617 -20.02035156 10.51682617 -19.1484375 9.70507812 C-17.4424931 8.12514098 -15.72358752 6.5606527 -14 5 C-13.20070068 4.25786255 -13.20070068 4.25786255 -12.38525391 3.50073242 C-7.91759529 -0.48647953 -5.72768701 -0.49376612 0 0 Z " fill="#C2745F" transform="translate(1278,432)"/>
<path d="M0 0 C7.92 0 15.84 0 24 0 C23.67 1.32 23.34 2.64 23 4 C23 3.34 23 2.68 23 2 C15.41 2.33 7.82 2.66 0 3 C0 2.01 0 1.02 0 0 Z " fill="#CA7D68" transform="translate(833,133)"/>
<path d="M0 0 C2.60025916 0.91009071 3.76626458 1.77626765 5.5 3.875 C2.94931155 6.22948165 1.78982642 6.85827924 -1.75 7.0625 C-2.6575 7.000625 -3.565 6.93875 -4.5 6.875 C-5.1875 5.0625 -5.1875 5.0625 -5.5 2.875 C-3.87147124 0.25125922 -3.10462557 -0.15523128 0 0 Z " fill="#C57D68" transform="translate(1256.5,446.125)"/>
<path d="M0 0 C0.33 0.99 0.66 1.98 1 3 C-2.08653056 7.8310913 -6.65212538 11.3434541 -11 15 C-11.61101562 15.51433594 -12.22203125 16.02867187 -12.8515625 16.55859375 C-14.22967314 17.7113735 -15.61408239 18.85661797 -17 20 C-15.30265036 15.70918446 -12.18073229 12.73370512 -9.0625 9.4375 C-8.52431641 8.86064453 -7.98613281 8.28378906 -7.43164062 7.68945312 C-4.99425493 5.08376459 -2.5319713 2.51420308 0 0 Z " fill="#C27560" transform="translate(317,352)"/>
<path d="M0 0 C5.28 0 10.56 0 16 0 C16.66 1.32 17.32 2.64 18 4 C15.22003893 4 12.57507433 3.78702071 9.8125 3.5 C8.91144531 3.4071875 8.01039062 3.314375 7.08203125 3.21875 C6.39496094 3.1465625 5.70789062 3.074375 5 3 C5 2.67 5 2.34 5 2 C3.35 1.67 1.7 1.34 0 1 C0 0.67 0 0.34 0 0 Z " fill="#CB8875" transform="translate(1141,133)"/>
<path d="M0 0 C1.4540625 0.0309375 1.4540625 0.0309375 2.9375 0.0625 C2.9375 0.7225 2.9375 1.3825 2.9375 2.0625 C1.6175 2.3925 0.2975 2.7225 -1.0625 3.0625 C-1.3925 7.6825 -1.7225 12.3025 -2.0625 17.0625 C-2.3925 17.0625 -2.7225 17.0625 -3.0625 17.0625 C-3.25636492 14.41698944 -3.44288267 11.77132217 -3.625 9.125 C-3.68107422 8.37025391 -3.73714844 7.61550781 -3.79492188 6.83789062 C-3.92426157 4.91504042 -3.99766912 2.98860452 -4.0625 1.0625 C-3.0625 0.0625 -3.0625 0.0625 0 0 Z " fill="#C97B67" transform="translate(1956.0625,132.9375)"/>
<path d="M0 0 C-1.59092052 4.13639336 -4.60474918 7.23213248 -8 10 C-8.66 10 -9.32 10 -10 10 C-8.50006099 6.10015857 -4.53875449 0 0 0 Z " fill="#C87F6B" transform="translate(1328,158)"/>
<path d="M0 0 C0.33 0.99 0.66 1.98 1 3 C-1.64 5.97 -4.28 8.94 -7 12 C-7.99 11.67 -8.98 11.34 -10 11 C-9.36191406 10.37351563 -8.72382813 9.74703125 -8.06640625 9.1015625 C-7.24011719 8.28429687 -6.41382813 7.46703125 -5.5625 6.625 C-4.73878906 5.81289062 -3.91507812 5.00078125 -3.06640625 4.1640625 C-0.96565328 2.17651485 -0.96565328 2.17651485 0 0 Z " fill="#C8836F" transform="translate(471,194)"/>
<path d="M0 0 C-2.64738916 1.4606285 -3.89448334 2 -7 2 C-7.33 2.99 -7.66 3.98 -8 5 C-9.32 4.67 -10.64 4.34 -12 4 C-12.33 4.66 -12.66 5.32 -13 6 C-13.66 5.34 -14.32 4.68 -15 4 C-12.87875034 3.13656176 -10.75286928 2.28449352 -8.625 1.4375 C-6.84996094 0.72400391 -6.84996094 0.72400391 -5.0390625 -0.00390625 C-2 -1 -2 -1 0 0 Z " fill="#D1917D" transform="translate(1374,132)"/>
<path d="M0 0 C0.66 0.66 1.32 1.32 2 2 C-0.64 4.31 -3.28 6.62 -6 9 C-6.66 8.67 -7.32 8.34 -8 8 C-5.36 5.36 -2.72 2.72 0 0 Z " fill="#C77D68" transform="translate(328,341)"/>
<path d="M0 0 C0.66 0.66 1.32 1.32 2 2 C1.34 3.32 0.68 4.64 0 6 C1.32 6.33 2.64 6.66 4 7 C2.02 7 0.04 7 -2 7 C-2.6875 5.1875 -2.6875 5.1875 -3 3 C-1.5625 1.25 -1.5625 1.25 0 0 Z " fill="#CF9383" transform="translate(1254,446)"/>
<path d="M0 0 C3.40320742 1.01176437 4.75725331 1.64843582 6.8125 4.625 C7.204375 5.40875 7.59625 6.1925 8 7 C5 7 5 7 2.3125 4.625 C0 2 0 2 0 0 Z " fill="#C88372" transform="translate(245,336)"/>
<path d="M0 0 C-1.38009621 3.33523252 -2.84950652 5.18607951 -6 7 C-6.99 6.67 -7.98 6.34 -9 6 C-7.8803014 4.99406757 -6.7540588 3.9954151 -5.625 3 C-4.68527344 2.1646875 -4.68527344 2.1646875 -3.7265625 1.3125 C-2 0 -2 0 0 0 Z " fill="#C47B68" transform="translate(490,467)"/>
<path d="M0 0 C0.33 0.99 0.66 1.98 1 3 C-1.97 5.475 -1.97 5.475 -5 8 C-5.66 7.67 -6.32 7.34 -7 7 C-4.69 4.69 -2.38 2.38 0 0 Z " fill="#C98773" transform="translate(317,352)"/>
<path d="M0 0 C2.475 0.495 2.475 0.495 5 1 C4.67 2.65 4.34 4.3 4 6 C3.01 5.67 2.02 5.34 1 5 C0.67 3.35 0.34 1.7 0 0 Z " fill="#F7EFEB" transform="translate(651,324)"/>
<path d="M0 0 C0.33 0.99 0.66 1.98 1 3 C-0.4375 5.1875 -0.4375 5.1875 -2 7 C-3.32 6.67 -4.64 6.34 -6 6 C-5.01 5.67 -4.02 5.34 -3 5 C-1.8499169 3.03327085 -1.8499169 3.03327085 -1 1 C-0.67 0.67 -0.34 0.34 0 0 Z " fill="#C98471" transform="translate(550,535)"/>
<path d="M0 0 C0.99 0.33 1.98 0.66 3 1 C1.25 6.75 1.25 6.75 -1 9 C-0.67 6.03 -0.34 3.06 0 0 Z " fill="#DFA796" transform="translate(219,496)"/>
<path d="M0 0 C0.33 1.32 0.66 2.64 1 4 C-0.65 5.32 -2.3 6.64 -4 8 C-4 4.09161134 -2.49432124 2.88405893 0 0 Z " fill="#CA816F" transform="translate(447,237)"/>
<path d="M0 0 C1.65 1.65 3.3 3.3 5 5 C4.34 5.66 3.68 6.32 3 7 C2.01 6.34 1.02 5.68 0 5 C-0.1875 2.375 -0.1875 2.375 0 0 Z " fill="#F9F0ED" transform="translate(1786,148)"/>
</svg>
