<?xml version="1.0" encoding="UTF-8"?>
<svg version="1.1" xmlns="http://www.w3.org/2000/svg" width="2027" height="776">
<path d="M0 0 C6.30564924 6.11200166 9.61007317 13.62751743 12.03515625 21.97265625 C12.03515625 22.63265625 12.03515625 23.29265625 12.03515625 23.97265625 C13.46794922 23.92044922 13.46794922 23.92044922 14.9296875 23.8671875 C31.448581 23.52132831 44.31528217 27.62876147 56.48828125 39.234375 C67.94356533 51.55056233 71.57913679 65.92873325 71.3125 82.3203125 C70.44801857 103.45064705 55.73028213 117.46264641 41.66915894 131.41381836 C39.99384507 133.07614724 38.32187015 134.74177451 36.65063477 136.40820312 C33.11498794 139.93255216 29.57535483 143.45288027 26.03515625 146.97265625 C21.90123049 151.08293971 17.76897646 155.19487687 13.64086914 159.31100464 C11.99373182 160.95166358 10.34361543 162.58928558 8.69335938 164.22680664 C7.69125996 165.22527638 6.68929908 166.22388518 5.6875 167.22265625 C4.81085693 168.0940625 3.93421387 168.96546875 3.03100586 169.86328125 C0.99546552 171.81046924 0.99546552 171.81046924 0.03515625 173.97265625 C-0.62484375 173.97265625 -1.28484375 173.97265625 -1.96484375 173.97265625 C-2.20346634 174.53692322 -2.44208893 175.10119019 -2.6879425 175.68255615 C-4.24449145 178.47419951 -6.12354802 180.36347279 -8.39526367 182.61425781 C-9.31349411 183.5291095 -10.23172455 184.44396118 -11.17778015 185.38653564 C-12.18359893 186.37880987 -13.18944371 187.37105773 -14.1953125 188.36328125 C-15.22994683 189.39163742 -16.26406254 190.42051562 -17.29768372 191.44989014 C-20.02142831 194.16033977 -22.75067316 196.86517651 -25.48156738 199.56842041 C-29.83524718 203.87899919 -34.18237163 208.19615909 -38.52602577 212.51683807 C-40.03398227 214.01469436 -41.54537458 215.50901531 -43.05717468 217.00299072 C-47.62039328 221.53430111 -52.02491957 226.10670313 -56.20796204 230.98968506 C-59.74564482 234.98262493 -63.58169686 238.68950112 -67.37109375 242.44140625 C-68.25462524 243.32115112 -69.13815674 244.200896 -70.04846191 245.1072998 C-73.32456695 248.3692257 -76.60519355 251.62658189 -79.88616943 254.88360596 C-83.11314913 258.08752885 -86.33622455 261.29534741 -89.55859375 264.50390625 C-90.39733032 265.33434448 -91.23606689 266.16478271 -92.10021973 267.02038574 C-96.42568876 271.32794393 -100.59100067 275.70462654 -104.55752563 280.34611511 C-106.22116385 282.26890426 -107.9960113 284.03556413 -109.83984375 285.78515625 C-113.75304562 289.6456804 -117.19282104 293.79181392 -120.62890625 298.078125 C-122.94101334 300.94312726 -125.32283897 303.7367429 -127.71484375 306.53515625 C-157.94673006 342.94445586 -175.10911365 382.8140082 -171.77880859 430.64453125 C-168.98364346 458.15214411 -155.58118626 488.2305267 -134.96484375 506.97265625 C-134.18109375 507.77703125 -133.39734375 508.58140625 -132.58984375 509.41015625 C-106.81255495 534.57370007 -73.79517828 546.33083168 -37.96484375 545.97265625 C-3.75771097 544.68522182 27.42273868 529.053334 50.90234375 504.4453125 C65.75277222 488.30931089 77.26409404 467.7419699 81.03515625 445.97265625 C80.47828125 445.81410156 79.92140625 445.65554688 79.34765625 445.4921875 C66.72772454 441.63372865 57.77597826 434.26510807 51.03515625 422.97265625 C43.93011862 409.11783288 42.13559972 394.77465898 46.72265625 379.78515625 C51.75841642 366.03644414 60.07031472 355.82923016 73.03515625 348.97265625 C86.6970206 342.98538502 100.84977389 342.0394196 115.03515625 346.97265625 C128.84540575 352.55589314 138.36646565 361.1736485 144.3203125 374.9453125 C149.67287403 389.1996251 150.14464873 404.86354705 144.03515625 418.97265625 C137.84757502 432.17927494 127.49124659 440.76337273 114.20214844 446.20654297 C108.33227981 448.28176241 102.18954735 449.1869893 96.03515625 449.97265625 C95.70644531 451.19597656 95.37773438 452.41929687 95.0390625 453.6796875 C84.47261849 491.64666922 61.0406648 523.62837737 26.73828125 543.5078125 C7.03654815 554.52284163 -15.27769153 561.52020592 -37.96484375 561.97265625 C-39.22941406 562.03066406 -39.22941406 562.03066406 -40.51953125 562.08984375 C-79.16264221 563.14695013 -115.56419927 547.81164312 -143.484375 521.49975586 C-170.73849427 494.99042097 -186.80820193 457.94068111 -187.96484375 419.97265625 C-188.00480469 418.96847656 -188.04476562 417.96429687 -188.0859375 416.9296875 C-188.94201737 376.39178785 -172.24811057 338.6731855 -147.96484375 306.97265625 C-147.21976563 305.97363281 -146.4746875 304.97460938 -145.70703125 303.9453125 C-140.51425347 297.03006781 -135.01830699 290.44577497 -129.25512695 283.99707031 C-128.7262085 283.39991211 -128.19729004 282.80275391 -127.65234375 282.1875 C-127.18183594 281.662771 -126.71132813 281.13804199 -126.2265625 280.59741211 C-124.84558314 278.81908052 -123.94549846 276.99376208 -122.96484375 274.97265625 C-123.5160791 274.42586212 -124.06731445 273.87906799 -124.63525391 273.31570435 C-129.82031496 268.1706589 -135.0005892 263.02086403 -140.17550659 257.86561775 C-142.83637708 255.21520021 -145.49908251 252.56668145 -148.16601562 249.92236328 C-150.73798348 247.37207004 -153.30508512 244.81697212 -155.86883545 242.25841904 C-156.84953807 241.28142187 -157.83200394 240.30619146 -158.81622314 239.33273697 C-160.19068224 237.97272076 -161.55840729 236.60590901 -162.92578125 235.23876953 C-163.70743652 234.46155548 -164.4890918 233.68434143 -165.29443359 232.88357544 C-166.96484375 230.97265625 -166.96484375 230.97265625 -166.96484375 228.97265625 C-167.62484375 228.97265625 -168.28484375 228.97265625 -168.96484375 228.97265625 C-170.40686035 227.50939941 -170.40686035 227.50939941 -172.08398438 225.48242188 C-175.86944158 221.03356928 -179.90571461 216.92057543 -184.05859375 212.81640625 C-184.80894897 212.06983765 -185.5593042 211.32326904 -186.33239746 210.55407715 C-188.70744295 208.191136 -191.08571192 205.83148255 -193.46484375 203.47265625 C-196.60323592 200.36104979 -199.7381712 197.2460187 -202.87109375 194.12890625 C-203.93233459 193.08011292 -203.93233459 193.08011292 -205.01501465 192.01013184 C-208.94136125 188.10292562 -212.65376183 184.08591769 -216.27062988 179.89172363 C-218.96586764 176.83877798 -221.84672304 173.9865244 -224.74609375 171.12890625 C-225.36327271 170.51551392 -225.98045166 169.90212158 -226.61633301 169.2701416 C-228.56338413 167.33515567 -230.51366782 165.4034822 -232.46484375 163.47265625 C-246.88945281 149.1984901 -246.88945281 149.1984901 -252.10351562 143.04345703 C-254.65231053 140.2078224 -257.36561839 137.55678349 -260.08984375 134.890625 C-260.92267883 134.07315292 -260.92267883 134.07315292 -261.77233887 133.23916626 C-264.07975804 130.97688794 -266.38882564 128.71662514 -268.71289062 126.47143555 C-282.85072003 112.78883153 -292.32478873 98.4847511 -293.33984375 78.28515625 C-292.94954649 62.96598884 -286.7768101 49.20368825 -276.3046875 38.19140625 C-267.98416835 30.30149827 -257.45358963 25.20039588 -245.95727539 24.47900391 C-242.79692555 24.27066324 -240.00200141 23.89458416 -236.96484375 22.97265625 C-234.2664491 19.64102311 -233.28670173 16.00377686 -231.96484375 11.97265625 C-227.3366185 3.66484819 -218.94995855 -2.97265415 -209.7734375 -5.58984375 C-197.77862593 -7.4582984 -186.69181116 -7.0475591 -176.35546875 -0.33203125 C-170.15583128 4.19847306 -166.30835587 9.09742107 -162.96484375 15.97265625 C-162.47371094 16.94138672 -162.47371094 16.94138672 -161.97265625 17.9296875 C-158.04880767 26.80505929 -157.87964848 37.84328297 -160.96484375 46.97265625 C-165.78397585 58.3963218 -171.59390267 67.04781405 -183.37109375 71.98046875 C-185.55493937 72.73025575 -187.73245937 73.38495584 -189.96484375 73.97265625 C-190.81046875 74.19953125 -191.65609375 74.42640625 -192.52734375 74.66015625 C-203.4600667 76.0617874 -214.05677749 73.22920516 -222.97265625 66.6484375 C-230.48937748 60.32554846 -234.24617884 53.44413402 -236.96484375 43.97265625 C-236.96484375 42.65265625 -236.96484375 41.33265625 -236.96484375 39.97265625 C-248.56614202 41.05793899 -259.43028703 44.08760836 -267.50390625 52.98828125 C-274.40275623 62.35891171 -276.89126044 72.47332526 -275.96484375 83.97265625 C-272.68234449 102.89529904 -254.21519614 116.86155782 -241.21484375 129.72265625 C-238.67535297 132.235247 -236.13942705 134.75136242 -233.60546875 137.26953125 C-233.04176575 137.82493591 -232.47806274 138.38034058 -231.89727783 138.95257568 C-229.04501179 141.78754056 -226.32449762 144.67849083 -223.70605469 147.73144531 C-219.66202363 152.40496058 -215.30743003 156.74385137 -210.91967773 161.09298706 C-209.42770132 162.57197534 -207.93906822 164.05426127 -206.45117188 165.53735352 C-203.2918961 168.68530874 -200.12868352 171.82928895 -196.96484375 174.97265625 C-193.29293586 178.62080408 -189.62274818 182.27064969 -185.95678711 185.92477417 C-184.50386467 187.37130694 -183.04792094 188.81474792 -181.59179688 190.25805664 C-177.07409268 194.75913971 -172.71248055 199.3111116 -168.56103516 204.15161133 C-165.97505292 207.10187769 -163.19610302 209.84571607 -160.40234375 212.59765625 C-159.80736084 213.18885254 -159.21237793 213.78004883 -158.59936523 214.38916016 C-156.72364718 216.25282125 -154.84469472 218.11316467 -152.96484375 219.97265625 C-138.88543603 233.89957941 -138.88543603 233.89957941 -133.68701172 240.0234375 C-129.84565989 244.3712335 -125.64723904 248.39132009 -121.52734375 252.47265625 C-120.60501953 253.39046875 -119.68269531 254.30828125 -118.73242188 255.25390625 C-116.47884476 257.4958068 -114.222953 259.73532225 -111.96484375 261.97265625 C-108.01917351 260.16110248 -105.85037122 257.8696383 -102.96484375 254.59765625 C-98.12546585 249.17768495 -93.08097463 244.03649695 -87.88671875 238.95703125 C-85.86365598 236.93937299 -83.99764276 234.84959135 -82.15722656 232.66503906 C-77.04144642 226.79783548 -71.47560251 221.37277599 -65.95654297 215.88919067 C-63.9269296 213.87248319 -61.90058117 211.85254404 -59.875 209.83178711 C-54.84635673 204.8164268 -49.81225584 199.80655617 -44.77832031 194.79650879 C-40.51380102 190.55180337 -36.25139273 186.30499883 -31.99169922 182.05545044 C-30.00694389 180.07712011 -28.01917352 178.10185496 -26.03125 176.12670898 C-20.78255011 170.89902066 -15.62098881 165.68956503 -10.81842041 160.04440308 C-6.76024683 155.50857328 -2.34242526 151.29951494 1.99341202 147.03093147 C3.83039608 145.22093502 5.66267901 143.4063011 7.49362183 141.5901947 C12.69410698 136.43212122 17.89731102 131.27689298 23.11669922 126.13793945 C26.32360117 122.97978881 29.52045654 119.81176007 32.71114731 116.63723564 C33.92023551 115.43798102 35.13295388 114.2423739 36.34949112 113.05067635 C42.627398 106.89821389 48.41975511 101.13401069 52.03515625 92.97265625 C52.35799591 92.3236586 52.68083557 91.67466095 53.01345825 91.0059967 C56.81399981 83.1659807 56.11628113 73.22191738 53.41015625 65.16015625 C48.96592358 54.59344921 42.96218032 47.55875816 32.53515625 42.66015625 C25.6647218 40.0648981 18.29527008 40.15280796 11.03515625 39.97265625 C10.92042969 41.02710938 10.80570312 42.0815625 10.6875 43.16796875 C8.99166834 53.05862763 1.87202123 60.18942758 -5.96484375 65.97265625 C-15.55707399 71.46694003 -26.46683604 72.52549808 -37.265625 70.2890625 C-47.20210544 67.2462521 -55.07213886 61.58948262 -60.96484375 52.97265625 C-66.7522777 41.47256141 -68.95970445 30.41980116 -64.96484375 17.97265625 C-61.09992085 7.83941301 -54.68547391 -0.41275554 -45.02734375 -5.52734375 C-29.37300806 -12.51341265 -13.36841569 -11.10498023 0 0 Z M-46.96484375 15.97265625 C-50.93362997 22.13865455 -52.90167777 28.59508838 -51.96484375 35.97265625 C-49.98390129 42.3353573 -46.80589989 48.62283367 -40.97265625 52.19140625 C-34.09721141 55.7172754 -28.04592982 57.25646186 -20.3984375 55.32421875 C-13.25369328 52.77174524 -8.20657089 49.19695133 -4.61328125 42.42578125 C-1.50895576 34.95005863 -1.29716374 28.97569628 -3.84375 21.3359375 C-7.22520382 13.4537333 -12.45412713 9.91845558 -20.15234375 6.59765625 C-30.55206693 4.28660665 -40.10690361 7.99020398 -46.96484375 15.97265625 Z M-215.96484375 15.97265625 C-221.82297702 23.54972534 -223.83213843 29.38213687 -222.96484375 38.97265625 C-221.20422122 46.72163821 -217.47566198 51.533462 -210.96484375 55.97265625 C-205.14917387 59.37427448 -199.55149139 59.92265351 -192.96484375 58.97265625 C-185.26259633 56.48270558 -179.76813754 52.1848641 -175.9375 45.0625 C-172.84327656 37.89017563 -173.06539249 30.4401846 -175.80859375 23.17578125 C-179.69803003 15.76482833 -185.61366084 12.16437034 -193.3515625 9.56640625 C-201.46053344 7.72400926 -209.71400072 10.69416658 -215.96484375 15.97265625 Z M70.03515625 375.97265625 C64.65945314 384.67994008 61.5693753 393.1592985 63.49609375 403.4296875 C66.02512479 413.1143887 71.95261421 420.19064799 80.03515625 425.97265625 C86.76784656 429.74683377 95.56121548 430.9462952 103.09765625 429.34765625 C113.37940705 426.13066674 120.8053933 421.08356207 126.3828125 411.70703125 C130.64548936 402.96777976 130.86921419 394.2323202 128.03515625 384.97265625 C123.97565747 375.85542128 117.15874633 368.38706146 107.78125 364.6328125 C93.46056548 361.19014439 79.67501813 364.58510949 70.03515625 375.97265625 Z " fill="#FFFFFF" transform="translate(423.96484375,110.02734375)"/>
<path d="M0 0 C1.24652344 -0.04898438 2.49304687 -0.09796875 3.77734375 -0.1484375 C7.0625 0.375 7.0625 0.375 8.52490234 2.37988281 C10.45669477 6.14285986 12.22385292 9.95897134 13.94921875 13.8203125 C14.32299652 14.6498645 14.69677429 15.4794165 15.08187866 16.33410645 C15.8868169 18.12132992 16.69038011 19.90917319 17.4927063 21.6975708 C19.63750644 26.47819647 21.7921617 31.25438114 23.9453125 36.03125 C24.59805901 37.48055405 24.59805901 37.48055405 25.26399231 38.95913696 C29.18277027 47.65551262 33.1479934 56.33014074 37.125 65 C42.3845912 76.47079548 47.5832363 87.96754202 52.74597168 99.48223877 C61.64540124 119.32818799 70.74785691 139.07556375 79.92919922 158.79248047 C81.85305606 162.92401013 83.77326485 167.05722044 85.69140625 171.19140625 C86.23909668 172.37162354 86.78678711 173.55184082 87.35107422 174.76782227 C88.39079937 177.0090396 89.43019922 179.25040787 90.46923828 181.49194336 C92.88577146 186.70173903 95.30994171 191.90768479 97.75488281 197.10420227 C98.96485383 199.6772151 100.1709691 202.25202664 101.37677002 204.82699585 C102.22316744 206.63033053 103.07511738 208.43105589 103.92724609 210.23168945 C104.43980957 211.32698975 104.95237305 212.42229004 105.48046875 213.55078125 C105.93188232 214.50895752 106.3832959 215.46713379 106.84838867 216.4543457 C108.18270434 219.66416239 109.1075399 223.03263965 110.0625 226.375 C102.4725 226.375 94.8825 226.375 87.0625 226.375 C85.9075 224.10625 84.7525 221.8375 83.5625 219.5 C83.21767578 218.82855957 82.87285156 218.15711914 82.51757812 217.46533203 C78.36667378 209.23153498 74.82248813 200.8349733 71.0625 192.375 C22.8825 192.045 -25.2975 191.715 -74.9375 191.375 C-75.9275 194.345 -76.9175 197.315 -77.9375 200.375 C-78.87081685 202.58086364 -79.84138578 204.77148679 -80.85546875 206.94140625 C-81.38720703 208.08544922 -81.91894531 209.22949219 -82.46679688 210.40820312 C-83.28760742 212.15520508 -83.28760742 212.15520508 -84.125 213.9375 C-84.68989992 215.14888029 -85.25435629 216.36046752 -85.81835938 217.57226562 C-87.18706091 220.50853985 -88.56168157 223.44205372 -89.9375 226.375 C-97.5275 226.375 -105.1175 226.375 -112.9375 226.375 C-109.56773646 216.26570937 -109.56773646 216.26570937 -107.4765625 212.23046875 C-107.0122583 211.32200195 -106.5479541 210.41353516 -106.06958008 209.47753906 C-105.57224365 208.51557617 -105.07490723 207.55361328 -104.5625 206.5625 C-99.53869946 196.67866028 -94.77797832 186.69993367 -90.14038086 176.62988281 C-86.05134095 167.75699622 -81.89302882 158.91913973 -77.70599365 150.09210205 C-69.87971498 133.5880265 -62.24082458 117.00393336 -54.67338562 100.37985229 C-48.58525688 87.00765776 -42.44041455 73.66181474 -36.16796875 60.375 C-35.8393988 59.67886597 -35.51082886 58.98273193 -35.17230225 58.26550293 C-33.81990753 55.4008277 -32.46735713 52.53622873 -31.11273193 49.67260742 C-27.22341356 41.44766698 -23.38629201 33.20302798 -19.65234375 24.90625 C-19.306306 24.13845718 -18.96026825 23.37066437 -18.60374451 22.5796051 C-16.93777004 18.87994342 -15.27985975 15.17695704 -13.63354492 11.46850586 C-13.03974086 10.14428324 -12.44575683 8.8201413 -11.8515625 7.49609375 C-11.3354541 6.3352124 -10.8193457 5.17433105 -10.28759766 3.97827148 C-7.92009003 -0.58677984 -4.8214273 0.1293675 0 0 Z M-1.9375 35.375 C-7.94336044 48.03889358 -13.9434152 60.70552834 -19.9375 73.375 C-20.31996887 74.18332275 -20.70243774 74.99164551 -21.09649658 75.82446289 C-31.39939072 97.54812585 -31.39939072 97.54812585 -41.34448242 119.43676758 C-46.07551127 130.03440618 -51.10825743 140.49551507 -56.08764648 150.97802734 C-56.63135643 152.12423302 -56.63135643 152.12423302 -57.18605042 153.29359436 C-57.86799568 154.73087664 -58.55105225 156.16763241 -59.23545837 157.60374451 C-59.54689285 158.26020462 -59.85832733 158.91666473 -60.17919922 159.59301758 C-60.44739471 160.15668533 -60.71559021 160.72035309 -60.99191284 161.30110168 C-62.36020319 164.30208897 -63.63827418 167.34347308 -64.9375 170.375 C-23.3575 170.375 18.2225 170.375 61.0625 170.375 C59.05940074 164.36570222 57.07136582 158.98118969 54.3125 153.375 C50.09905333 144.64131951 46.06129903 135.83324519 42.0625 127 C36.59919692 114.94127643 31.09806526 102.90072329 25.5625 90.875 C19.23520195 77.12837833 12.95032448 63.36310973 6.70703125 49.578125 C6.25849037 48.58879723 6.25849037 48.58879723 5.80088806 47.57948303 C4.99887176 45.81035414 4.19776499 44.04081299 3.39672852 42.27124023 C2.32636841 39.94778517 1.22584007 37.65284688 0.0625 35.375 C-0.5975 35.375 -1.2575 35.375 -1.9375 35.375 Z " fill="#FFFFFF" transform="translate(1107.9375,152.625)"/>
<path d="M0 0 C0.98033203 -0.00128906 1.96066406 -0.00257813 2.97070312 -0.00390625 C4.51854492 0.00189453 4.51854492 0.00189453 6.09765625 0.0078125 C7.12568359 0.00394531 8.15371094 0.00007812 9.21289062 -0.00390625 C10.68532227 -0.00197266 10.68532227 -0.00197266 12.1875 0 C13.54476196 0.00169189 13.54476196 0.00169189 14.92944336 0.00341797 C17.16015625 0.1328125 17.16015625 0.1328125 19.16015625 1.1328125 C20.19768768 3.63191829 21.12183434 6.10568774 22.00390625 8.66015625 C22.42531639 9.85152191 22.42531639 9.85152191 22.85523987 11.06695557 C23.47057578 12.80916955 24.08256243 14.55256909 24.69168091 16.29696655 C26.01520926 20.08704962 27.35454246 23.87149029 28.69264221 27.65644836 C29.40625548 29.67574891 30.11899338 31.695359 30.83091736 33.71525574 C34.53198442 44.21180217 38.30238691 54.6830287 42.07983398 65.15228271 C43.60739363 69.38684708 45.1324374 73.62231581 46.65756226 77.85775757 C49.15669329 84.79799078 51.65676473 91.73788405 54.15966797 98.67675781 C64.15448968 126.38781324 73.92653281 154.15676797 83.16015625 182.1328125 C86.78083594 173.72025359 89.96788726 165.21965612 92.97265625 156.5703125 C97.47557905 143.72492467 102.15313947 130.94861534 106.91015625 118.1953125 C107.24797119 117.28946411 107.58578613 116.38361572 107.93383789 115.45031738 C112.29656394 103.75790106 116.68192988 92.07398086 121.06884766 80.390625 C121.38412415 79.55096191 121.69940063 78.71129883 122.02423096 77.84619141 C122.65517522 76.1658389 123.28615651 74.4855003 123.91717529 72.80517578 C127.99318705 61.94857107 132.04232214 51.08279914 136.03515625 40.1953125 C136.69112793 38.40770508 136.69112793 38.40770508 137.36035156 36.58398438 C139.52870477 30.65594671 141.6664143 24.71851636 143.765625 18.765625 C144.18021973 17.59507568 144.59481445 16.42452637 145.02197266 15.21850586 C145.80297692 13.00809547 146.57773498 10.79546479 147.34521484 8.58032227 C147.68762207 7.61151123 148.0300293 6.6427002 148.3828125 5.64453125 C148.67937744 4.79334717 148.97594238 3.94216309 149.28149414 3.06518555 C150.16015625 1.1328125 150.16015625 1.1328125 152.16015625 0.1328125 C153.68163951 0.04908591 155.20671403 0.02551223 156.73046875 0.03515625 C157.62636719 0.03837891 158.52226563 0.04160156 159.4453125 0.04492188 C160.85103516 0.05749023 160.85103516 0.05749023 162.28515625 0.0703125 C163.23003906 0.07482422 164.17492187 0.07933594 165.1484375 0.08398438 C167.48574012 0.09578893 169.82291686 0.11225491 172.16015625 0.1328125 C173.34130758 4.30495143 172.93651225 6.68050357 171.4140625 10.70703125 C170.78902832 12.38708252 170.78902832 12.38708252 170.15136719 14.10107422 C169.67989258 15.32842285 169.20841797 16.55577148 168.72265625 17.8203125 C168.22586132 19.14040183 167.73012382 20.46088952 167.23535156 21.78173828 C165.85739468 25.44874337 164.46257286 29.10911957 163.0635376 32.76812744 C161.82336159 36.01440397 160.58963395 39.26311914 159.35543823 42.51167297 C156.67907085 49.55509478 153.99530499 56.5956688 151.306427 63.63432312 C141.70148088 88.78221525 132.29942836 114.00558648 122.97265625 139.2578125 C122.62773132 140.19164764 122.2828064 141.12548279 121.9274292 142.08761597 C118.45596331 151.48742788 114.98704064 160.88817504 111.52246094 170.29052734 C109.2456467 176.46909681 106.96585021 182.64655972 104.68441772 188.82342529 C103.80084309 191.21742582 102.91835703 193.61182844 102.03701782 196.00665283 C100.80345226 199.35831501 99.56618185 202.70858845 98.328125 206.05859375 C97.96528412 207.04723923 97.60244324 208.0358847 97.22860718 209.05448914 C95.07967387 214.85545785 92.73081847 220.5054976 90.16015625 226.1328125 C85.54015625 226.1328125 80.92015625 226.1328125 76.16015625 226.1328125 C73.40257423 220.09264581 70.95421271 214.046205 68.76171875 207.78125 C68.4504303 206.90152527 68.13914185 206.02180054 67.81842041 205.11541748 C67.15128706 203.22888533 66.48576124 201.34178406 65.82171631 199.4541626 C64.40363452 195.42336342 62.9775447 191.39541195 61.5519104 187.36727905 C60.82005286 185.29924143 60.08858924 183.23106435 59.35751343 181.16275024 C55.9470258 171.51684274 52.49761859 161.88516487 49.03515625 152.2578125 C48.4597065 150.65723026 47.88426706 149.05664432 47.30883789 147.45605469 C46.44904916 145.06459659 45.58920849 142.67315727 44.72914124 140.28179932 C42.71549994 134.68182742 40.70805756 129.07965755 38.703125 123.4765625 C28.87867527 96.0288303 18.93809928 68.62411757 8.76171875 41.3046875 C8.39684357 40.32514099 8.03196838 39.34559448 7.65603638 38.33636475 C5.89055957 33.59902902 4.12232573 28.8627439 2.35009766 24.12792969 C2.02504242 23.25775208 1.69998718 22.38757446 1.36508179 21.49102783 C0.76356359 19.88079064 0.16083237 18.27100575 -0.44345093 16.6618042 C-2.36147002 11.52301415 -4.13699122 6.3467546 -5.83984375 1.1328125 C-4.19094609 -0.51608516 -2.26638991 0.00282869 0 0 Z " fill="#FFFFFF" transform="translate(822.83984375,152.8671875)"/>
<path d="M0 0 C0.97195313 -0.03738281 1.94390625 -0.07476562 2.9453125 -0.11328125 C3.87859375 -0.12488281 4.811875 -0.13648438 5.7734375 -0.1484375 C6.63114746 -0.16825684 7.48885742 -0.18807617 8.37255859 -0.20849609 C10.625 0.375 10.625 0.375 12.19897461 2.30175781 C14.13759583 6.47970061 15.73335832 10.73844243 17.29296875 15.0703125 C17.64450516 16.0332724 17.99604156 16.9962323 18.35823059 17.9883728 C19.11695099 20.06833877 19.87335314 22.14915153 20.62768555 24.23071289 C22.23964267 28.67862509 23.86272812 33.12244851 25.48538208 37.56646729 C26.31899269 39.84959474 27.15205699 42.13292175 27.98458862 44.41644287 C31.50124396 54.05697221 35.06983172 63.677499 38.65997314 73.29086304 C46.70203918 94.82580786 54.63542252 116.40014405 62.54336548 137.98464966 C64.72577285 143.9369609 66.92453899 149.88291606 69.13671875 155.82421875 C69.89909795 157.87822426 70.66100943 159.93240248 71.42269897 161.98666382 C72.09578356 163.79644328 72.77492861 165.60396528 73.4543457 167.41137695 C75.65939397 173.36451458 77.41975398 179.13916191 78.625 185.375 C79.285 185.375 79.945 185.375 80.625 185.375 C80.78355469 184.8068457 80.94210937 184.23869141 81.10546875 183.65332031 C83.22203984 176.31840753 85.87645458 169.24332588 88.625 162.125 C89.62241034 159.52183093 90.61625097 156.91730697 91.609375 154.3125 C91.86225281 153.6497406 92.11513062 152.9869812 92.37567139 152.30413818 C94.92989077 145.59770328 97.41093915 138.86505255 99.875 132.125 C100.32141846 130.90417725 100.76783691 129.68335449 101.2277832 128.42553711 C102.43288345 125.1274893 103.63624996 121.82881095 104.83917236 118.52996826 C107.49451141 111.2482552 110.15260974 103.96755172 112.8125 96.6875 C113.12566162 95.8300116 113.43882324 94.97252319 113.76147461 94.08905029 C119.07363133 79.54849762 124.46825949 65.03966329 129.88830566 50.53903198 C134.88104087 37.17379146 139.7480454 23.7701361 144.44042969 10.29638672 C144.85067383 9.12350098 145.26091797 7.95061523 145.68359375 6.7421875 C146.21424438 5.21247314 146.21424438 5.21247314 146.75561523 3.65185547 C147.625 1.375 147.625 1.375 148.625 0.375 C150.25972882 0.28799658 151.89814055 0.26798937 153.53515625 0.27734375 C154.52451172 0.28056641 155.51386719 0.28378906 156.53320312 0.28710938 C157.57412109 0.29548828 158.61503906 0.30386719 159.6875 0.3125 C161.25467773 0.31926758 161.25467773 0.31926758 162.85351562 0.32617188 C165.4440666 0.33800087 168.03450559 0.35448311 170.625 0.375 C171.88200281 4.14600842 171.17531528 5.21791335 169.74707031 8.87133789 C169.31094421 10.00220322 168.87481812 11.13306854 168.42547607 12.29820251 C167.93471043 13.54386087 167.44392616 14.78951189 166.953125 16.03515625 C166.44746255 17.33928171 165.94286483 18.64382045 165.43927002 19.94874573 C164.37649193 22.70102327 163.30971716 25.45170338 162.24047852 28.20147705 C159.92761546 34.1621049 157.67482068 40.14529069 155.42211723 46.12885284 C154.66290342 48.14491746 153.90245189 50.16051106 153.14161682 52.17596436 C151.55171177 56.3877537 149.96316937 60.6000559 148.375 64.8125 C147.96005342 65.91299809 147.96005342 65.91299809 147.53672409 67.03572845 C139.19250427 89.16792304 130.90363428 111.31993971 122.6875 133.5 C122.33561237 134.44984961 122.33561237 134.44984961 121.97661591 135.41888809 C119.43047138 142.29189382 116.88572468 149.16541672 114.34130859 156.0390625 C110.31412053 166.9169097 106.28145144 177.79270881 102.23922729 188.66497803 C101.42656744 190.85201706 100.61478925 193.03938395 99.8039856 195.22711182 C95.9249494 205.69314227 92.03114229 216.11722211 87.625 226.375 C82.675 226.375 77.725 226.375 72.625 226.375 C69.37519477 218.67618764 66.27947475 210.95527442 63.39453125 203.11328125 C63.00649323 202.06456345 62.6184552 201.01584564 62.21865845 199.93534851 C60.95582036 196.52029923 59.69658295 193.10393534 58.4375 189.6875 C57.55037601 187.28574656 56.66308504 184.88405478 55.77563477 182.48242188 C46.05977958 156.17686455 36.35206309 129.8672519 26.76171875 103.515625 C19.96468455 84.85625913 12.94676343 66.28242977 5.92333984 47.70727539 C0.09349805 32.286357 -5.69798926 16.85293131 -11.375 1.375 C-8.99309282 -1.00690718 -3.19533592 0.04624828 0 0 Z " fill="#FFFFFF" transform="translate(562.375,152.625)"/>
<path d="M0 0 C3.9209388 0.09437708 6.15030664 0.21755849 9.3046875 2.6015625 C11.22864796 4.94661619 12.96803483 7.3484548 14.63574219 9.88134766 C16.69815991 12.94093583 18.93321288 15.86927243 21.14306641 18.82324219 C24.10676002 22.79613465 27.01961264 26.80591726 29.9375 30.8125 C30.6696875 31.81410156 31.401875 32.81570312 32.15625 33.84765625 C35.05731065 37.82432202 37.93952275 41.8144198 40.81640625 45.80859375 C46.48346203 53.67327447 52.17684587 61.51603567 57.9375 69.3125 C64.12770544 77.691914 70.24224403 86.12357494 76.32861328 94.57861328 C79.02762128 98.32609784 81.73288884 102.06905845 84.4375 105.8125 C85.52086304 107.31247854 86.60419638 108.81247854 87.6875 110.3125 C88.22375 111.055 88.76 111.7975 89.3125 112.5625 C103.9375 132.8125 118.5625 153.0625 133.1875 173.3125 C133.72463623 174.0562085 134.26177246 174.79991699 134.81518555 175.56616211 C135.88963849 177.05390349 136.96402095 178.54169578 138.03833008 180.02954102 C140.88193314 183.96753578 143.72704784 187.90442759 146.57421875 191.83984375 C147.16847656 192.66162109 147.76273438 193.48339844 148.375 194.33007812 C149.51647791 195.90852805 150.65838482 197.48666785 151.80078125 199.06445312 C152.31382812 199.77408203 152.826875 200.48371094 153.35546875 201.21484375 C153.80688232 201.83866943 154.2582959 202.46249512 154.72338867 203.10522461 C155.82449554 204.65359387 156.88358661 206.23162991 157.9375 207.8125 C157.93565641 206.76390399 157.93381283 205.71530798 157.93191338 204.63493633 C157.88756007 179.14764775 157.85467027 153.66036415 157.83387566 128.17304516 C157.82355286 115.84769 157.80947339 103.5223603 157.78662109 91.19702148 C157.7667179 80.45717693 157.75379087 69.71735082 157.74932301 58.97748834 C157.74671042 53.2881885 157.74054892 47.5989414 157.72603989 41.90965843 C157.71250446 36.55899173 157.70826915 31.20839971 157.71128464 25.85771751 C157.71073266 23.89004104 157.70673125 21.92236218 157.69908905 19.95470047 C157.68919098 17.27567157 157.69151224 14.59692746 157.69699097 11.91789246 C157.69116528 11.13287753 157.6853396 10.3478626 157.67933738 9.53905934 C157.70038134 5.75216035 157.78321992 4.04392012 159.9375 0.8125 C161.8125 0.44921875 161.8125 0.44921875 163.9375 0.5 C164.63875 0.50386719 165.34 0.50773438 166.0625 0.51171875 C167.9375 0.8125 167.9375 0.8125 169.9375 2.8125 C170.13546238 5.72871031 170.20666227 8.55008009 170.19146729 11.4675293 C170.19614726 12.82779881 170.19614726 12.82779881 170.20092177 14.21554852 C170.20893769 17.2726702 170.20256419 20.32959537 170.19628906 23.38671875 C170.19899733 25.57093421 170.20255733 27.75514876 170.20690918 29.93936157 C170.21605499 35.88549142 170.21247991 41.83155215 170.20615101 47.77768326 C170.20110233 53.98810264 170.2057793 60.19851594 170.20892334 66.40893555 C170.21279992 77.50896777 170.20656812 88.60897269 170.19640467 99.70899951 C170.18746874 109.78029917 170.18902066 119.85155274 170.19824219 129.92285156 C170.20893696 141.60869112 170.21293365 153.29450376 170.20701766 164.98034763 C170.20389279 171.16980153 170.20350275 177.35922365 170.21009064 183.54867554 C170.21584986 189.36639964 170.2118934 195.18403633 170.20030212 201.00175095 C170.19764789 203.14238718 170.19843354 205.28303072 170.20282745 207.42366409 C170.20825435 210.33503375 170.20148371 213.24611938 170.19146729 216.1574707 C170.19815945 217.4423716 170.19815945 217.4423716 170.20498681 218.75323009 C170.16580003 224.58419997 170.16580003 224.58419997 167.9375 226.8125 C164.41095474 227.80579914 161.4708164 227.77103316 157.9375 226.8125 C154.21031616 223.71627049 151.64669092 219.78770837 148.9375 215.8125 C148.03895789 214.53989813 147.13780604 213.26913585 146.234375 212 C144.7479205 209.90588654 143.26639389 207.808923 141.796875 205.70288086 C137.83327385 200.02564152 133.73120058 194.46553613 129.5625 188.9375 C115.68555601 170.52999603 102.11960832 151.90118749 88.73852539 133.13061523 C83.72646047 126.10489075 78.66381346 119.11569823 73.60644531 112.12255859 C71.97231701 109.86069171 70.3411287 107.59673692 68.7109375 105.33203125 C62.58193398 96.82175456 56.40102525 88.35276386 50.16821289 79.91821289 C46.22342789 74.57414154 42.31804764 69.20336269 38.4375 63.8125 C31.67667746 54.42538566 24.8276584 45.10501914 17.9375 35.8125 C17.36483398 35.03938477 16.79216797 34.26626953 16.20214844 33.46972656 C14.55462612 31.24825301 12.90316247 29.0297784 11.25 26.8125 C10.75685303 26.14782715 10.26370605 25.4831543 9.75561523 24.79833984 C7.6247251 21.95042741 5.49250535 19.28469783 2.9375 16.8125 C2.93934359 17.88263273 2.94118717 18.95276546 2.94308662 20.05532646 C2.98742939 46.05966692 3.0203247 72.06400249 3.04112434 98.06837273 C3.0514495 110.64373999 3.06553344 123.21908233 3.08837891 135.79443359 C3.10827492 146.75144534 3.12120741 157.70843903 3.12567699 168.66546834 C3.12829081 174.47043092 3.13446 180.27534186 3.14896011 186.08028793 C3.16248424 191.53847276 3.16673317 196.99658441 3.16371536 202.45478439 C3.16426785 204.46319475 3.16827595 206.47160743 3.17591095 208.48000336 C3.1857914 211.21192918 3.18349432 213.94357494 3.17800903 216.67550659 C3.18383472 217.47899815 3.1896604 218.28248972 3.19566262 219.11032951 C3.16574242 224.58425758 3.16574242 224.58425758 0.9375 226.8125 C-1.77704956 227.14002234 -4.31480759 226.9433425 -7.0625 226.8125 C-8.91594827 224.95905173 -8.19067509 222.3231377 -8.2009055 219.85613829 C-8.1993569 218.9927339 -8.1978083 218.12932951 -8.19621277 217.23976135 C-8.19847833 216.32968588 -8.20074388 215.41961041 -8.20307809 214.4819569 C-8.20944879 211.40796191 -8.20858677 208.33401066 -8.20776367 205.26000977 C-8.21075325 203.06609032 -8.2141553 200.87217139 -8.21794128 198.67825317 C-8.22680585 192.70109319 -8.22912042 186.72394751 -8.22975707 180.74678159 C-8.23070407 175.76632056 -8.23437992 170.78586291 -8.23792917 165.80540317 C-8.24561665 154.73234241 -8.24859694 143.6592873 -8.24792381 132.58622421 C-8.24788386 131.92121504 -8.2478439 131.25620588 -8.24780273 130.57104492 C-8.24776185 129.90522795 -8.24772097 129.23941098 -8.24767885 128.55341773 C-8.24727226 117.75895154 -8.25684393 106.96452021 -8.2709411 96.1700641 C-8.28528703 85.09815977 -8.29202891 74.02626984 -8.29134732 62.95435566 C-8.29109164 56.73358314 -8.29398159 50.51285005 -8.30452538 44.29208565 C-8.31416618 38.44401345 -8.31431332 32.59601871 -8.30700874 26.74794388 C-8.30595789 24.59601797 -8.3083552 22.44408733 -8.3143692 20.29216957 C-8.32202169 17.36542768 -8.31748945 14.43895781 -8.30973816 11.51222229 C-8.31488172 10.65104862 -8.32002529 9.78987496 -8.32532471 8.90260512 C-8.28369672 1.84062414 -6.99660814 0.48280688 0 0 Z " fill="#FFFFFF" transform="translate(1711.0625,152.1875)"/>
<path d="M0 0 C2.60465202 2.11806868 5.10207502 4.31391526 7.59375 6.5625 C8.67269531 7.37847656 8.67269531 7.37847656 9.7734375 8.2109375 C13.20658838 10.81682311 14.42064697 11.99510675 15.71875 16.25 C15.59375 19.5625 15.59375 19.5625 14.46875 21.5 C11.89618718 22.9577856 10.53232042 22.96782006 7.59375 22.5625 C5.0078125 20.47265625 5.0078125 20.47265625 2.21875 17.625 C-4.29360635 11.28226304 -11.43816835 6.85984115 -19.40625 2.5625 C-20.28410156 2.07007813 -21.16195313 1.57765625 -22.06640625 1.0703125 C-46.61417949 -11.45644342 -77.80158245 -11.12365754 -103.53125 -2.8125 C-118.57068878 2.37300394 -131.40328061 10.20137105 -143.40625 20.5625 C-144.07785156 21.13226563 -144.74945312 21.70203125 -145.44140625 22.2890625 C-165.22611562 40.5302839 -176.5213746 69.26617235 -177.69140625 95.74609375 C-178.43029407 124.69994085 -169.08437948 149.7099388 -150.40625 171.5625 C-149.83519531 172.23667969 -149.26414062 172.91085937 -148.67578125 173.60546875 C-136.55697323 186.72119671 -119.8202453 195.24051315 -103.15625 200.9375 C-102.46039795 201.17637939 -101.7645459 201.41525879 -101.04760742 201.66137695 C-72.75897441 210.77216994 -42.63000702 205.72151228 -16.58666992 192.74389648 C-9.97355137 189.33906461 -4.37096703 185.46914349 1.2265625 180.54296875 C3.56739955 178.58454567 5.93957001 177.05960864 8.59375 175.5625 C13.32468276 177.8673134 13.32468276 177.8673134 14.50390625 180.9140625 C14.59375 183.5625 14.59375 183.5625 13.03125 185.66796875 C-11.8292174 206.90295132 -43.24274587 219.82766997 -76.40625 217.5625 C-106.6197624 214.67839666 -132.27291826 204.71125292 -154.40625 183.5625 C-155.00695313 183.02496094 -155.60765625 182.48742187 -156.2265625 181.93359375 C-174.64928591 164.83902017 -188.48126529 136.03080936 -189.51635742 110.88793945 C-190.25108121 72.97681225 -180.46391024 41.56516818 -153.84375 13.625 C-135.75782455 -3.96390765 -112.19848227 -15.20913155 -87.40625 -19.4375 C-85.84003906 -19.71400391 -85.84003906 -19.71400391 -84.2421875 -19.99609375 C-54.97025945 -23.36445207 -23.99044473 -17.91986991 0 0 Z " fill="#FFFFFF" transform="translate(1424.40625,166.4375)"/>
<path d="M0 0 C0.83724609 -0.01224609 1.67449219 -0.02449219 2.53710938 -0.03710938 C3.73883789 -0.04000977 3.73883789 -0.04000977 4.96484375 -0.04296875 C5.70210693 -0.04707764 6.43937012 -0.05118652 7.19897461 -0.05541992 C9.0625 0.1875 9.0625 0.1875 11.0625 2.1875 C11.26046238 5.10371031 11.33166227 7.92508009 11.31646729 10.8425293 C11.31958727 11.74937564 11.32270725 12.65622198 11.32592177 13.59054852 C11.33393769 16.6476702 11.32756419 19.70459537 11.32128906 22.76171875 C11.32399733 24.94593421 11.32755733 27.13014876 11.33190918 29.31436157 C11.34105499 35.26049142 11.33747991 41.20655215 11.33115101 47.15268326 C11.32610233 53.36310264 11.3307793 59.57351594 11.33392334 65.78393555 C11.33779992 76.88396777 11.33156812 87.98397269 11.32140467 99.08399951 C11.31246874 109.15529917 11.31402066 119.22655274 11.32324219 129.29785156 C11.33393696 140.98369112 11.33793365 152.66950376 11.33201766 164.35534763 C11.32889279 170.54480153 11.32850275 176.73422365 11.33509064 182.92367554 C11.34084986 188.74139964 11.3368934 194.55903633 11.32530212 200.37675095 C11.32264789 202.51738718 11.32343354 204.65803072 11.32782745 206.79866409 C11.33325435 209.71003375 11.32648371 212.62111938 11.31646729 215.5324707 C11.32092873 216.3890713 11.32539017 217.2456719 11.32998681 218.12823009 C11.29080003 223.95919997 11.29080003 223.95919997 9.0625 226.1875 C7.19897461 226.43041992 7.19897461 226.43041992 4.96484375 226.41796875 C4.16369141 226.41603516 3.36253906 226.41410156 2.53710938 226.41210938 C1.69986328 226.39986328 0.86261719 226.38761719 0 226.375 C-0.84111328 226.37435547 -1.68222656 226.37371094 -2.54882812 226.37304688 C-8.79726816 226.32773184 -8.79726816 226.32773184 -9.9375 225.1875 C-10.18005375 222.8282819 -10.35946693 220.49653569 -10.49169922 218.13037109 C-10.53380964 217.41011938 -10.57592007 216.68986767 -10.61930656 215.94779015 C-11.03272076 208.333924 -11.08194508 200.72447669 -11.0703125 193.1015625 C-11.07137943 191.52934241 -11.07276951 189.95712251 -11.07444763 188.38490295 C-11.07726608 184.09454847 -11.07281364 179.80423108 -11.06627274 175.51388168 C-11.06247594 172.79527489 -11.06042203 170.07667165 -11.05880737 167.35806274 C-11.03473701 132.6149112 -10.81278343 97.87258105 -10.54722524 63.13055849 C-10.51005801 58.25471371 -10.47503943 53.37885639 -10.44073486 48.50299072 C-10.39399632 41.88969258 -10.34134774 35.27645831 -10.28468513 28.66323662 C-10.264258 26.19834124 -10.24547843 23.73343162 -10.22839165 21.26851082 C-10.20454614 17.89078059 -10.17454088 14.51316218 -10.14282227 11.13549805 C-10.13706743 10.13322992 -10.1313126 9.1309618 -10.12538338 8.09832191 C-10.11559393 7.19488737 -10.10580448 6.29145283 -10.09571838 5.36064148 C-10.08603956 4.18006684 -10.08603956 4.18006684 -10.0761652 2.9756422 C-9.7081056 -1.77063092 -3.60462474 0.00276216 0 0 Z " fill="#FFFFFF" transform="translate(772.9375,152.8125)"/>
<path d="M0 0 C3.5 0.1875 3.5 0.1875 5.5 1.1875 C5.5 71.8075 5.5 142.4275 5.5 215.1875 C43.95984582 215.14788089 43.95984582 215.14788089 82.41967773 215.09741211 C89.84191895 215.09289551 89.84191895 215.09289551 93.31166077 215.09205627 C95.74578534 215.09051619 98.17990914 215.08698997 100.61402893 215.08192444 C104.29144628 215.07465118 107.96881682 215.07359244 111.64624023 215.07397461 C112.73874053 215.0703765 113.83124083 215.06677839 114.95684719 215.06307125 C115.94061872 215.06444875 116.92439024 215.06582624 117.93797302 215.06724548 C119.23078768 215.06586279 119.23078768 215.06586279 120.54971981 215.06445217 C122.5 215.1875 122.5 215.1875 123.5 216.1875 C123.5979057 217.68488124 123.62974864 219.18692892 123.625 220.6875 C123.62757813 221.5021875 123.63015625 222.316875 123.6328125 223.15625 C123.5 225.1875 123.5 225.1875 122.5 226.1875 C120.87240346 226.28790283 119.24044421 226.31826048 117.60975647 226.32121277 C116.02175484 226.32761024 116.02175484 226.32761024 114.40167236 226.33413696 C112.64448883 226.33345718 112.64448883 226.33345718 110.85180664 226.33276367 C109.01298164 226.33780159 109.01298164 226.33780159 107.13700867 226.34294128 C103.76512146 226.35083717 100.3932958 226.35412023 97.02140355 226.35475707 C94.21063289 226.35570455 91.3998682 226.35938099 88.58909982 226.36292917 C81.95986884 226.37108134 75.33065144 226.37351271 68.70141602 226.37280273 C61.85371323 226.37220176 55.00608917 226.38275575 48.15840632 226.3985464 C42.28748676 226.41160425 36.41659298 226.41698737 30.54565901 226.41634732 C27.03560494 226.41609181 23.52562079 226.41897198 20.01558113 226.42952538 C16.10288516 226.44096751 12.19029791 226.43647031 8.27758789 226.43041992 C7.10815643 226.43603943 5.93872498 226.44165894 4.7338562 226.44744873 C3.14162483 226.441157 3.14162483 226.441157 1.51722717 226.43473816 C0.59120225 226.43528293 -0.33482267 226.43582769 -1.28890896 226.43638897 C-3.5 226.1875 -3.5 226.1875 -5.5 224.1875 C-5.69796238 221.27128969 -5.76916227 218.44991991 -5.75396729 215.5324707 C-5.75708727 214.62562436 -5.76020725 213.71877802 -5.76342177 212.78445148 C-5.77143769 209.7273298 -5.76506419 206.67040463 -5.75878906 203.61328125 C-5.76149733 201.42906579 -5.76505733 199.24485124 -5.76940918 197.06063843 C-5.77855499 191.11450858 -5.77497991 185.16844785 -5.76865101 179.22231674 C-5.76360233 173.01189736 -5.7682793 166.80148406 -5.77142334 160.59106445 C-5.77529992 149.49103223 -5.76906812 138.39102731 -5.75890467 127.29100049 C-5.74996874 117.21970083 -5.75152066 107.14844726 -5.76074219 97.07714844 C-5.77143696 85.39130888 -5.77543365 73.70549624 -5.76951766 62.01965237 C-5.76639279 55.83019847 -5.76600275 49.64077635 -5.77259064 43.45132446 C-5.77834986 37.63360036 -5.7743934 31.81596367 -5.76280212 25.99824905 C-5.76014789 23.85761282 -5.76093354 21.71696928 -5.76532745 19.57633591 C-5.77075435 16.66496625 -5.76398371 13.75388062 -5.75396729 10.8425293 C-5.75842873 9.9859287 -5.76289017 9.1293281 -5.76748681 8.24676991 C-5.71412197 0.30611368 -5.71412197 0.30611368 0 0 Z " fill="#FFFFFF" transform="translate(1487.5,152.8125)"/>
<path d="M0 0 C6.91927943 -0.07657284 13.83844806 -0.12881775 20.75805664 -0.16479492 C23.10803308 -0.1798061 25.45798186 -0.20022135 27.80786133 -0.22631836 C31.20140442 -0.26304034 34.5945745 -0.27980365 37.98828125 -0.29296875 C39.02519608 -0.30845261 40.0621109 -0.32393646 41.13044739 -0.33988953 C55.27477894 -0.34309387 66.41286893 3.93667738 76.671875 13.58203125 C86.3328998 23.61588084 90.38296687 36.23649075 90.21484375 50.00390625 C89.26659384 63.22768225 83.77462275 75.04994999 74 84 C62.61968044 92.61680182 49.54970639 95.16251772 35.60546875 95.1328125 C34.61750809 95.13376923 33.62954742 95.13472595 32.61164856 95.13571167 C30.53317196 95.1363899 28.4546932 95.13456059 26.3762207 95.13037109 C23.1811047 95.12498923 19.98612745 95.13034275 16.79101562 95.13671875 C14.77083302 95.13605846 12.7506505 95.13477833 10.73046875 95.1328125 C9.77013229 95.13483673 8.80979584 95.13686096 7.82035828 95.13894653 C6.93886612 95.13579437 6.05737396 95.13264221 5.14916992 95.12939453 C3.98051643 95.12820114 3.98051643 95.12820114 2.78825378 95.12698364 C1 95 1 95 0 94 C-0.09525367 91.07805335 -0.12552736 88.17979671 -0.11352539 85.25756836 C-0.11367142 84.3405867 -0.11381744 83.42360504 -0.1139679 82.47883606 C-0.1132684 79.43248164 -0.10547428 76.38618755 -0.09765625 73.33984375 C-0.0957922 71.23377007 -0.09436824 69.12769597 -0.09336853 67.0216217 C-0.08954231 61.46657117 -0.07971114 55.91154659 -0.06866455 50.35650635 C-0.05845267 44.6927526 -0.05387139 39.02899467 -0.04882812 33.36523438 C-0.03808896 22.24347815 -0.0210113 11.12174123 0 0 Z M11 9 C11 34.08 11 59.16 11 85 C43.46854337 87.08865071 43.46854337 87.08865071 70 74 C76.66536784 66.18155164 79.56841571 57.87006193 79.4375 47.6875 C79.42505249 46.43573975 79.42505249 46.43573975 79.41235352 45.15869141 C79.11868517 34.396426 75.78262069 25.63381341 68 18 C51.11944751 5.03460086 32.29779041 9 11 9 Z " fill="#FFFFFF" transform="translate(1405,459)"/>
<path d="M0 0 C3.5 0.25 3.5 0.25 5.5 2.25 C5.69579087 5.18107438 5.76475111 8.01757399 5.74723816 10.94972229 C5.74965257 11.86135775 5.75206699 12.77299321 5.75455457 13.71225399 C5.76021764 16.78553578 5.75150884 19.85861211 5.74291992 22.93188477 C5.74399215 25.12757422 5.74592995 27.32326341 5.74867249 29.51895142 C5.75353316 35.49601001 5.74585015 41.47299431 5.73571944 47.45004392 C5.7269599 53.69162495 5.72869597 59.93320351 5.7290802 66.17478943 C5.72814267 76.65714643 5.71950012 87.13947925 5.70581055 97.62182617 C5.69171912 108.41740442 5.68463989 119.21295735 5.68530273 130.00854492 C5.68534269 130.67355409 5.68538265 131.33856325 5.68542381 132.02372421 C5.68548435 133.01947916 5.68548435 133.01947916 5.6855461 134.03535038 C5.68620029 145.68904196 5.6810591 157.34272377 5.67275429 168.99641228 C5.66921391 173.96651223 5.66738996 178.93660852 5.66686058 183.90670967 C5.66585963 189.75313739 5.65978345 195.5995383 5.64969444 201.44595718 C5.64676152 203.59830117 5.64554566 205.75064825 5.64612198 207.90299416 C5.64660897 210.82777886 5.64099375 213.75248723 5.63371277 216.67726135 C5.63526137 217.54066574 5.63680997 218.40407013 5.6384055 219.29363829 C5.61417852 225.13582148 5.61417852 225.13582148 4.5 226.25 C2.98071962 226.32179964 1.45832518 226.33392007 -0.0625 226.3125 C-0.88878906 226.30347656 -1.71507812 226.29445313 -2.56640625 226.28515625 C-3.20449219 226.27355469 -3.84257813 226.26195312 -4.5 226.25 C-6.15634887 222.93730227 -5.64029658 219.23676727 -5.63371277 215.5949707 C-5.63597833 214.68812436 -5.63824388 213.78127802 -5.64057809 212.84695148 C-5.64693884 209.78988201 -5.64608741 206.73285663 -5.64526367 203.67578125 C-5.64825384 201.49156639 -5.65165603 199.30735206 -5.65544128 197.12313843 C-5.66429915 191.17702839 -5.66662012 185.23093274 -5.66725707 179.28481674 C-5.66820456 174.32915881 -5.67188092 169.37350427 -5.67542917 164.41784763 C-5.68311417 153.40015234 -5.68609717 142.38246379 -5.68542381 131.364766 C-5.68538386 130.70330924 -5.6853439 130.04185247 -5.68530273 129.36035156 C-5.68526185 128.69809071 -5.68522097 128.03582985 -5.68517885 127.35350049 C-5.68477217 116.61406327 -5.69434689 105.87466108 -5.7084411 95.135234 C-5.72278687 84.11753729 -5.72952893 73.09985853 -5.72884732 62.08215237 C-5.72859166 55.8926938 -5.73148053 49.70327487 -5.74202538 43.51382446 C-5.75166589 37.69610759 -5.75181353 31.87846858 -5.74450874 26.06074905 C-5.7434579 23.92011019 -5.74585514 21.77946658 -5.7518692 19.63883591 C-5.75952175 16.72747375 -5.75498944 13.81638505 -5.74723816 10.9050293 C-5.75238172 10.0484287 -5.75752529 9.1918281 -5.76282471 8.30926991 C-5.71600502 0.40828607 -5.71600502 0.40828607 0 0 Z " fill="#FFFFFF" transform="translate(1644.5,152.75)"/>
<path d="M0 0 C8.32728947 -0.02312684 16.65456563 -0.04091683 24.98187923 -0.05181217 C28.84820118 -0.05704026 32.71450121 -0.06413654 36.58081055 -0.07543945 C40.30903401 -0.086271 44.03723634 -0.0922774 47.76547432 -0.09487724 C49.19089656 -0.09673101 50.61631759 -0.10035071 52.04173088 -0.10573006 C54.03163408 -0.11294393 56.02155834 -0.11340808 58.01147461 -0.11352539 C59.14620712 -0.115746 60.28093964 -0.11796661 61.45005798 -0.12025452 C64 0 64 0 65 1 C65.125 4.5 65.125 4.5 65 8 C64 9 64 9 61.82969666 9.12025452 C60.87261307 9.11803391 59.91552948 9.11581329 58.92944336 9.11352539 C57.84839828 9.11344986 56.76735321 9.11337433 55.65354919 9.11329651 C53.889515 9.10555458 53.889515 9.10555458 52.08984375 9.09765625 C50.89267227 9.0962413 49.69550079 9.09482635 48.46205139 9.09336853 C44.62050934 9.08774979 40.77902457 9.07519411 36.9375 9.0625 C34.34049563 9.05748741 31.74349035 9.05292409 29.14648438 9.04882812 C22.76428284 9.03862313 16.3822059 9.01905136 10 9 C10 19.89 10 30.78 10 42 C15.18009766 41.98259766 15.18009766 41.98259766 20.46484375 41.96484375 C23.79418852 41.95705431 27.12353229 41.95097691 30.45288086 41.94506836 C32.77417451 41.94002667 35.09546497 41.93319349 37.41674805 41.92456055 C40.74528795 41.91248775 44.07378602 41.90677021 47.40234375 41.90234375 C48.44712387 41.89718246 49.49190399 41.89202118 50.56834412 41.88670349 C51.52926468 41.88662796 52.49018524 41.88655243 53.48022461 41.88647461 C54.33071884 41.884254 55.18121307 41.88203339 56.05747986 41.87974548 C58 42 58 42 59 43 C59 45.64 59 48.28 59 51 C42.83 51 26.66 51 10 51 C10 62.22 10 73.44 10 85 C14.03089844 84.98839844 18.06179688 84.97679687 22.21484375 84.96484375 C25.42077859 84.95841672 28.62671163 84.95299253 31.83264923 84.94824982 C35.22137231 84.94296031 38.61007056 84.9358872 41.9987793 84.92456055 C45.88329777 84.91165733 49.76780597 84.90677076 53.65234375 84.90234375 C54.87211411 84.89718246 56.09188446 84.89202118 57.34861755 84.88670349 C59.03024742 84.88659019 59.03024742 84.88659019 60.74584961 84.88647461 C61.73846298 84.884254 62.73107635 84.88203339 63.75376892 84.87974548 C66 85 66 85 67 86 C67.1328125 87.8125 67.1328125 87.8125 67.125 90 C67.12886719 91.0828125 67.12886719 91.0828125 67.1328125 92.1875 C67 94 67 94 66 95 C63.98049791 95.09935148 61.95749085 95.12799508 59.93554688 95.12939453 C57.98847839 95.13412277 57.98847839 95.13412277 56.0020752 95.13894653 C54.57429979 95.13715675 53.14652469 95.1351058 51.71875 95.1328125 C50.26525862 95.13348558 48.81176736 95.13445564 47.35827637 95.13571167 C44.30833873 95.13718846 41.25843034 95.1350347 38.20849609 95.13037109 C34.29069441 95.1246738 30.37296122 95.12795291 26.45516205 95.13394356 C23.45269246 95.13754969 20.45023923 95.13641035 17.44776917 95.13381577 C16.00281262 95.13314664 14.55785461 95.13397442 13.11289978 95.13629532 C11.09675117 95.13882265 9.08059738 95.13429052 7.06445312 95.12939453 C5.34023132 95.12820114 5.34023132 95.12820114 3.58117676 95.12698364 C1 95 1 95 0 94 C-0.09525367 91.07805335 -0.12552736 88.17979671 -0.11352539 85.25756836 C-0.11367142 84.3405867 -0.11381744 83.42360504 -0.1139679 82.47883606 C-0.1132684 79.43248164 -0.10547428 76.38618755 -0.09765625 73.33984375 C-0.0957922 71.23377007 -0.09436824 69.12769597 -0.09336853 67.0216217 C-0.08954231 61.46657117 -0.07971114 55.91154659 -0.06866455 50.35650635 C-0.05845267 44.6927526 -0.05387139 39.02899467 -0.04882812 33.36523438 C-0.03808896 22.24347815 -0.0210113 11.12174123 0 0 Z " fill="#FFFFFF" transform="translate(1641,459)"/>
<path d="M0 0 C1.47906892 -0.02689216 2.95827483 -0.04634621 4.4375 -0.0625 C5.26121094 -0.07410156 6.08492187 -0.08570313 6.93359375 -0.09765625 C9 0 9 0 10 1 C10.10271188 2.97176978 10.13572457 4.94719718 10.1418457 6.92163086 C10.14888016 8.19062729 10.15591461 9.45962372 10.16316223 10.76707458 C10.16588607 11.79208982 10.16588607 11.79208982 10.16866493 12.83781242 C10.17582812 14.97885314 10.1914983 17.11966433 10.21000671 19.26063538 C10.26244718 25.3502363 10.31034195 31.43971976 10.32592773 37.52954102 C10.33608171 41.25273604 10.36560311 44.97536538 10.40724754 48.69833565 C10.41947078 50.11068987 10.42469483 51.52312438 10.42244911 52.93552971 C10.40962447 63.64588158 11.49131502 73.4687068 19.20703125 81.52734375 C26.92686578 87.86803573 36.51592609 87.92342221 46.04541016 87.22314453 C53.17622277 86.40905975 58.25792002 83.60740009 62.74609375 78.07421875 C66.02000423 72.65849767 67.37342773 68.31485034 67.41650391 61.97900391 C67.42508926 61.31634521 67.43367462 60.65368652 67.44252014 59.97094727 C67.46738122 57.80604107 67.47193942 55.6415978 67.4765625 53.4765625 C67.49088555 51.96437193 67.5066449 50.45219435 67.52377319 48.94003296 C67.56546099 44.97852134 67.59057299 41.01709035 67.61126709 37.05541992 C67.64721349 30.6937059 67.70794193 24.33218993 67.76975632 17.97068405 C67.78888154 15.74759731 67.80058151 13.52456397 67.81118774 11.30142212 C67.82139266 9.94915649 67.83174997 8.596892 67.84228516 7.24462891 C67.85202866 5.46761093 67.85202866 5.46761093 67.86196899 3.6546936 C68 1 68 1 69 0 C70.68608966 -0.07205511 72.37500659 -0.08386068 74.0625 -0.0625 C74.98160156 -0.05347656 75.90070313 -0.04445313 76.84765625 -0.03515625 C77.55792969 -0.02355469 78.26820312 -0.01195312 79 0 C79.06980773 8.56297657 79.1229663 17.12583231 79.15543652 25.68902397 C79.17102819 29.666158 79.19214604 33.64309596 79.22631836 37.62011719 C79.25914583 41.4651085 79.27690176 45.30991236 79.28463173 49.15503311 C79.29013361 50.61490958 79.30087635 52.07477692 79.31719017 53.5345726 C79.46085782 66.93498207 77.74655128 77.65898914 68.37109375 87.75390625 C58.70066816 96.70634201 47.35843694 97.48451207 34.8125 97.265625 C24.54390314 96.85712388 17.45001782 93.54352709 10.125 86.359375 C0.70131263 75.89631035 -0.44475625 65.09771341 -0.29296875 51.46484375 C-0.28736306 49.97555471 -0.28309757 48.48626008 -0.28010559 46.9969635 C-0.26873325 43.10560427 -0.23933328 39.21458899 -0.20599365 35.32336426 C-0.17512711 31.34127452 -0.16156507 27.3591284 -0.14648438 23.37695312 C-0.11445488 15.5844798 -0.06335272 7.79228837 0 0 Z " fill="#FFFFFF" transform="translate(1175,459)"/>
<path d="M0 0 C3.3 0 6.6 0 10 0 C15.23509885 10.31722403 20.2455609 20.70316154 25 31.25 C25.63635195 32.65565449 26.27282985 34.06125197 26.90942383 35.46679688 C33.82090447 50.74788187 40.62088531 66.07903264 47.41162109 81.4140625 C49.27066243 85.61104977 51.13439353 89.80592773 53 94 C52 95 52 95 49.93359375 95.09765625 C49.10988281 95.08605469 48.28617188 95.07445312 47.4375 95.0625 C46.19806641 95.04896484 46.19806641 95.04896484 44.93359375 95.03515625 C43.97646484 95.01775391 43.97646484 95.01775391 43 95 C41.72130916 92.52462463 40.45204869 90.04509034 39.1875 87.5625 C38.83107422 86.87478516 38.47464844 86.18707031 38.10742188 85.47851562 C37.58051758 84.43920898 37.58051758 84.43920898 37.04296875 83.37890625 C36.72352295 82.7557251 36.40407715 82.13254395 36.07495117 81.49047852 C34.46449106 77.75931713 33.28511272 73.85533816 32 70 C14.18 70 -3.64 70 -22 70 C-22.99 72.97 -23.98 75.94 -25 79 C-25.63828902 80.47880678 -26.30823429 81.94557181 -27.04296875 83.37890625 C-27.39423828 84.07177734 -27.74550781 84.76464844 -28.10742188 85.47851562 C-28.46384766 86.16623047 -28.82027344 86.85394531 -29.1875 87.5625 C-29.55552734 88.28501953 -29.92355469 89.00753906 -30.30273438 89.75195312 C-31.19624313 91.50415862 -32.09730775 93.25250788 -33 95 C-35.97 95 -38.94 95 -42 95 C-41.45427921 90.91118323 -40.57367411 87.65165951 -38.734375 83.96484375 C-38.02800903 82.5272168 -38.02800903 82.5272168 -37.30737305 81.06054688 C-36.53647339 79.51463867 -36.53647339 79.51463867 -35.75 77.9375 C-31.22748661 68.6955174 -26.86923453 59.40114918 -22.6875 50 C-21.61338436 47.5871936 -20.53920069 45.1744177 -19.46484375 42.76171875 C-19.19151215 42.14754089 -18.91818054 41.53336304 -18.63656616 40.90057373 C-15.05010717 32.85204709 -11.39867792 24.83295806 -7.75 16.8125 C-7.41745209 16.08087646 -7.08490417 15.34925293 -6.74227905 14.59545898 C-1.187602 2.37520399 -1.187602 2.37520399 0 0 Z M5 11 C0.85044034 19.05613238 -2.88013006 27.28588487 -6.5625 35.5625 C-7.13196023 36.83798049 -7.70162075 38.11337157 -8.27148438 39.38867188 C-9.36085791 41.82714315 -10.44713569 44.26691395 -11.53173828 46.70751953 C-12.44419908 48.75365294 -13.36324148 50.79688072 -14.29248047 52.83544922 C-14.65873535 53.64127441 -15.02499023 54.44709961 -15.40234375 55.27734375 C-15.71550537 55.95917725 -16.02866699 56.64101074 -16.35131836 57.34350586 C-17.12154579 59.01388696 -17.12154579 59.01388696 -17 61 C-2.48 61 12.04 61 27 61 C26.31225186 57.56125931 25.84466208 55.30745161 24.48120117 52.27050781 C24.17385544 51.57918762 23.8665097 50.88786743 23.54985046 50.17559814 C23.2175795 49.44218201 22.88530853 48.70876587 22.54296875 47.953125 C22.19873367 47.18248718 21.8544986 46.41184937 21.49983215 45.61785889 C20.4005132 43.15972622 19.29415369 40.70483799 18.1875 38.25 C17.45460555 36.61479506 16.72217895 34.97938034 15.99023438 33.34375 C14.6320532 30.31020888 13.27103681 27.27797466 11.90698242 24.24707031 C9.92389932 19.83763053 7.96027108 15.41962028 6 11 C5.67 11 5.34 11 5 11 Z " fill="#FFFFFF" transform="translate(989,459)"/>
<path d="M0 0 C-0.67915667 4.31085759 -1.6777286 6.10640878 -5 9 C-5.556875 8.66226562 -6.11375 8.32453125 -6.6875 7.9765625 C-17.33978635 1.75073298 -28.00440345 0.2855196 -40.23828125 2.6171875 C-44.98709925 4.06946472 -48.28131298 5.63762394 -51.1875 9.75 C-53.93854217 15.11253871 -53.54692945 19.53881747 -52.25 25.375 C-49.99820961 30.10375981 -44.29991872 31.15776447 -39.58984375 32.87109375 C-35.97912588 34.00656433 -32.37113069 34.89897448 -28.68798828 35.76000977 C-5.84928827 41.10971084 -5.84928827 41.10971084 0.953125 50.29296875 C4.72135692 56.43743648 4.80966011 63.17724196 3.640625 70.140625 C1.80141745 76.45358064 -2.69611293 80.37567717 -8 84 C-20.08549214 90.35403905 -33.9740364 89.82809691 -47 87 C-54.11683687 84.73217829 -60.16342513 81.64273001 -66 77 C-64.125 71.25 -64.125 71.25 -63 69 C-59.2455906 70.42763648 -55.7433366 72.13586548 -52.1875 74 C-41.37780259 79.38514695 -30.37499056 80.95300574 -18.4375 77.8125 C-12.9925942 75.92600555 -10.154839 72.73225851 -7 68 C-6.40007455 63.83947804 -6.56216456 60.0945886 -8.125 56.1875 C-12.75114941 50.79032569 -18.23107565 49.11855216 -24.875 47.5625 C-26.56830136 47.13646472 -28.26100229 46.70803657 -29.953125 46.27734375 C-30.79810547 46.0644873 -31.64308594 45.85163086 -32.51367188 45.63232422 C-55.96347642 39.66855814 -55.96347642 39.66855814 -61.42578125 30.64453125 C-64.77095914 23.22996171 -65.11099382 16.6299583 -62.5625 8.9375 C-59.15244322 1.29754701 -53.25876994 -3.44711068 -45.5625 -6.5 C-30.24798069 -10.90072394 -13.35418218 -8.53183861 0 0 Z " fill="#FFFFFF" transform="translate(814,466)"/>
<path d="M0 0 C0 3 0 3 -1.14453125 4.5078125 C-3.06789106 6.37261569 -5.01838682 8.19697241 -7 10 C-7.85722656 10.81082031 -8.71445313 11.62164062 -9.59765625 12.45703125 C-17.57334201 19.58018239 -17.57334201 19.58018239 -23.1875 19.5625 C-24.445625 19.376875 -25.70375 19.19125 -27 19 C-24.84922658 14.26777644 -21.56403171 10.96868397 -18 7.25 C-17.37738281 6.55261719 -16.75476562 5.85523438 -16.11328125 5.13671875 C-11.01981967 -0.142711 -7.22026705 -0.96541481 0 0 Z " fill="#FFFFFF" transform="translate(1234,436)"/>
</svg>
